<svg viewBox="-2100 -787.5 4200 1575" xmlns="http://www.w3.org/2000/svg">
<g>
<path d="M-2000,750 L-2000,-750 L2000,-750 L2000,750 z" fill="#CC824A" stroke="black" stroke-width="6.3"/>
</g>
<g>
<g>
<path d="M165.06042,-747.9529 L165.06042,241.03015 L179.07742,255.04715 L161.84743,287.83414 L266.06042,392.04715 L-1999.9396,392.04715 L-1895.7266,287.83414 L-1912.9565,255.04715 L-1898.9396,241.03015 L-1898.9396,-747.9529 z" fill="#FFC879" fill-rule="nonzero" opacity="0.9" stroke="black" stroke-width="3.15"/>
</g>
<g>
<path d="M1977.3279,-749.9312 L1849.8279,-664.9312 L1875.8448,-662.9312 L1861.8279,-648.9142 L1861.8279,170.06882 L277.82788,170.06882 L277.82687,-648.91516 L263.81097,-662.9311 L289.82788,-664.9312 L162.32787,-749.9312 z" fill="#FFC879" fill-rule="nonzero" opacity="0.9" stroke="black" stroke-width="3.15"/>
</g>
<g>
<path d="M1957.6815,587.5976 L1870.6815,587.5976 L1870.6815,613.8976 L1856.3816,599.5976 L1798.6815,600.30457 L1798.676,749.5976 L1304.6815,749.5976 L1304.6815,175.59758 L1856.3816,175.59758 L1870.6815,161.29758 L1872.6815,187.59758 L1928.6815,103.59758 L1957.6815,103.59758 z" fill="#FFC879" fill-rule="nonzero" opacity="0.9" stroke="black" stroke-width="3.15"/>
</g>
<g>
<path d="M951.09906,232.35385 L951.09906,606.3538 L399.39804,606.3538 L401.09805,609.3538 L401.09805,634.3538 L317.09805,718.3538 L266.09903,718.3538 L266.09903,170.35385 L317.09903,170.35385 L404.49222,228.61597 L399.39905,232.35385 z" fill="#FFC879" fill-rule="nonzero" opacity="0.9" stroke="black" stroke-width="3.15"/>
</g>
<g>
<path d="M-1999.8386,405.30014 L-1911.8386,405.30014 L-1908.8386,392.30014 L-1334.8386,392.30014 L-1331.8386,405.30014 L-1193.8386,405.30014 L-1193.8386,639.3002 L-1222.8386,639.3002 L-1222.8386,690.3002 L-1970.8386,690.3002 L-1970.8386,639.3002 L-1999.8386,639.3002 z" fill="#FFC879" fill-rule="nonzero" opacity="0.9" stroke="black" stroke-width="3.15"/>
</g>
<g>
<path d="M-1193.6967,405.21738 L-1105.6967,405.21738 L-1102.6967,392.21738 L-528.6967,392.21738 L-525.6967,405.21738 L-387.6967,405.21738 L-387.6967,639.2174 L-416.6967,639.2174 L-416.6967,690.2174 L-1164.6967,690.2174 L-1164.6967,639.2174 L-1193.6967,639.2174 z" fill="#FFC879" fill-rule="nonzero" opacity="0.9" stroke="black" stroke-width="3.15"/>
</g>
<g>
<path d="M194.33887,714.5237 L-387.66113,714.5237 L-387.66113,392.52365 L194.33887,392.52365 z" fill="#FFC879" fill-rule="nonzero" opacity="0.9" stroke="black" stroke-width="3.15"/>
</g>
<g>
<path d="M401.22116,607.5868 L983.2211,607.5868 L983.2211,717.5868 L401.22116,717.5868 z" fill="#FFC879" fill-rule="nonzero" opacity="0.9" stroke="black" stroke-width="3.15"/>
</g>
<g>
<path d="M165.10043,-651.41504 L275.10043,-651.41504 L275.10043,-69.41505 L165.10043,-69.41505 z" fill="#FFC879" fill-rule="nonzero" opacity="0.9" stroke="black" stroke-width="3.15"/>
</g>
<g>
<path d="M1861.8495,-647.66864 L1971.8495,-647.66864 L1971.8495,-65.66863 L1861.8495,-65.66863 z" fill="#FFC879" fill-rule="nonzero" opacity="0.9" stroke="black" stroke-width="3.15"/>
</g>
<g>
<path d="M983.38336,674.7049 L983.38336,170.70493 L1273.3833,170.70493 L1273.3833,178.70493 L1278.3833,178.70493 L1278.3833,208.70493 L1286.3833,208.70493 L1286.3833,636.7049 L1278.3833,636.7049 L1278.3833,666.7049 L1273.3833,666.7049 L1273.3833,674.7049 z" fill="#FFC879" fill-rule="nonzero" opacity="0.9" stroke="black" stroke-width="3.15"/>
</g>
<g>
<path d="M-1969.9103,-189.37975 L-1999.9103,-189.37975 L-1999.9103,-202.63274 L-1997.1304,-203.54974 L-1993.8973,-205.72574 L-1991.0503,-209.66473 L-1990.1483,-212.44974 L-1990.1483,-217.30974 L-1993.2084,-223.33974 L-1997.1304,-226.20975 L-1999.9103,-227.12674 L-1999.9103,-277.13275 L-1997.1304,-278.04974 L-1993.8973,-280.22574 L-1991.4933,-283.29175 L-1990.1483,-286.94974 L-1990.1483,-291.80975 L-1993.2084,-297.83975 L-1997.1304,-300.70975 L-1999.9103,-301.62674 L-1999.9103,-677.13275 L-1997.1304,-678.04974 L-1993.2084,-680.91974 L-1990.1483,-686.94977 L-1990.1483,-691.80975 L-1991.4933,-695.4677 L-1993.8973,-698.53375 L-1997.1304,-700.7097 L-1999.9103,-701.6268 L-1999.9103,-749.37976 L-1969.9103,-749.37976 z" fill="#FFC879" fill-rule="nonzero" opacity="0.9" stroke="black" stroke-width="3.15"/>
</g>
<g>
<path d="M-1969.7468,-749.6052 L-1939.7468,-749.6052 L-1939.7468,-736.35223 L-1942.5269,-735.4352 L-1945.7599,-733.2592 L-1948.6068,-729.3202 L-1949.5089,-726.5352 L-1949.5089,-721.67523 L-1946.4489,-715.6452 L-1942.5269,-712.7752 L-1939.7468,-711.8582 L-1939.7468,-661.85223 L-1942.5269,-660.9352 L-1945.7599,-658.7592 L-1948.1638,-655.69324 L-1949.5089,-652.0352 L-1949.5089,-647.17523 L-1946.4489,-641.1452 L-1942.5269,-638.2752 L-1939.7468,-637.3582 L-1939.7468,-261.8522 L-1942.5269,-260.9352 L-1946.4489,-258.06522 L-1949.5089,-252.0352 L-1949.5089,-247.17522 L-1948.1638,-243.51721 L-1945.7599,-240.4512 L-1942.5269,-238.2752 L-1939.7468,-237.35822 L-1939.7468,-189.60521 L-1969.7468,-189.60521 z" fill="#FFC879" fill-rule="nonzero" opacity="0.9" stroke="black" stroke-width="3.15"/>
</g>
<g>
<path d="M-1939.7279,-746.3302 L-1909.7279,-746.3302 L-1909.7279,-733.0772 L-1912.5079,-732.1602 L-1915.741,-729.9842 L-1918.5879,-726.0452 L-1919.4899,-723.2602 L-1919.4899,-718.4002 L-1916.4299,-712.37024 L-1912.5079,-709.50024 L-1909.7279,-708.5832 L-1909.7279,-658.5772 L-1912.5079,-657.6602 L-1915.741,-655.4842 L-1918.1449,-652.4182 L-1919.4899,-648.7602 L-1919.4899,-643.9002 L-1916.4299,-637.87024 L-1912.5079,-635.00024 L-1909.7279,-634.0832 L-1909.7279,-258.5772 L-1912.5079,-257.66022 L-1916.4299,-254.79022 L-1919.4899,-248.76022 L-1919.4899,-243.90022 L-1918.1449,-240.24222 L-1915.741,-237.17621 L-1912.5079,-235.00021 L-1909.7279,-234.08322 L-1909.7279,-186.33022 L-1939.7279,-186.33022 z" fill="#FFC879" fill-rule="nonzero" opacity="0.9" stroke="black" stroke-width="3.15"/>
</g>
<g>
<path d="M-1999.9938,721.10016 L-1999.9938,691.10016 L-1986.7408,691.10016 L-1985.8239,693.8802 L-1983.6478,697.11316 L-1979.7089,699.9602 L-1976.9238,700.8622 L-1972.0638,700.8622 L-1966.0338,697.8022 L-1963.1638,693.8802 L-1962.2468,691.10016 L-1912.2408,691.10016 L-1911.3239,693.8802 L-1909.1478,697.11316 L-1906.0818,699.51715 L-1902.4238,700.8622 L-1897.5638,700.8622 L-1891.5338,697.8022 L-1888.6638,693.8802 L-1887.7468,691.10016 L-1512.2408,691.10016 L-1511.3239,693.8802 L-1508.4539,697.8022 L-1502.4238,700.8622 L-1497.5638,700.8622 L-1493.9058,699.51715 L-1490.8398,697.11316 L-1488.6638,693.8802 L-1487.7468,691.10016 L-1439.9938,691.10016 L-1439.9938,721.10016 z" fill="#FFC879" fill-rule="nonzero" opacity="0.9" stroke="black" stroke-width="3.15"/>
</g>
<g>
<path d="M-1439.9181,721.2837 L-1439.9181,691.2837 L-1426.665,691.2837 L-1425.748,694.06366 L-1423.5721,697.2967 L-1419.633,700.1437 L-1416.8481,701.04565 L-1411.988,701.04565 L-1405.9581,697.98566 L-1403.0881,694.06366 L-1402.1711,691.2837 L-1352.165,691.2837 L-1351.248,694.06366 L-1349.0721,697.2967 L-1346.0061,699.7007 L-1342.3481,701.04565 L-1337.488,701.04565 L-1331.4581,697.98566 L-1328.5881,694.06366 L-1327.6711,691.2837 L-952.1651,691.2837 L-951.2481,694.06366 L-948.3781,697.98566 L-942.3481,701.04565 L-937.4881,701.04565 L-933.8301,699.7007 L-930.7641,697.2967 L-928.5881,694.06366 L-927.6711,691.2837 L-879.9181,691.2837 L-879.9181,721.2837 z" fill="#FFC879" fill-rule="nonzero" opacity="0.9" stroke="black" stroke-width="3.15"/>
</g>
<g>
<path d="M362.3718,200.346 L362.3718,170.346 L375.6248,170.346 L376.54178,173.12599 L378.71777,176.359 L382.6568,179.206 L385.4418,180.10799 L390.3018,180.10799 L396.3318,177.04799 L399.20178,173.12599 L400.11877,170.346 L450.1248,170.346 L451.04178,173.12599 L453.21777,176.359 L456.28378,178.76299 L459.9418,180.10799 L464.8018,180.10799 L470.8318,177.04799 L473.70178,173.12599 L474.61877,170.346 L850.1248,170.346 L851.0418,173.12599 L853.9118,177.04799 L859.9418,180.10799 L864.80176,180.10799 L868.4598,178.76299 L871.5258,176.359 L873.7018,173.12599 L874.6188,170.346 L922.37177,170.346 L922.37177,200.346 z" fill="#FFC879" fill-rule="nonzero" opacity="0.9" stroke="black" stroke-width="3.15"/>
</g>
<g>
<path d="M-319.91724,717.21875 L-319.91724,747.21875 L-333.17023,747.21875 L-334.08722,744.4387 L-336.2632,741.20575 L-340.20224,738.35876 L-342.9872,737.4567 L-347.84723,737.4567 L-353.87723,740.5167 L-356.74722,744.4387 L-357.6642,747.21875 L-407.67023,747.21875 L-408.58722,744.4387 L-410.7632,741.20575 L-413.82922,738.80176 L-417.4872,737.4567 L-422.34723,737.4567 L-428.37723,740.5167 L-431.24722,744.4387 L-432.1642,747.21875 L-807.6702,747.21875 L-808.5872,744.4387 L-811.4572,740.5167 L-817.48724,737.4567 L-822.3472,737.4567 L-826.00525,738.80176 L-829.0712,741.20575 L-831.24725,744.4387 L-832.16425,747.21875 L-879.91724,747.21875 L-879.91724,717.21875 z" fill="#FFC879" fill-rule="nonzero" opacity="0.9" stroke="black" stroke-width="3.15"/>
</g>
<g>
<path d="M367.36142,747.91376 L367.36142,717.91376 L380.6144,717.91376 L381.5314,720.6937 L383.70743,723.92676 L387.64642,726.77374 L390.43143,727.6757 L395.2914,727.6757 L401.3214,724.6157 L404.1914,720.6937 L405.10843,717.91376 L455.1144,717.91376 L456.0314,720.6937 L458.20743,723.92676 L461.2734,726.33075 L464.93143,727.6757 L469.7914,727.6757 L475.8214,724.6157 L478.6914,720.6937 L479.60843,717.91376 L855.11444,717.91376 L856.03143,720.6937 L858.9014,724.6157 L864.9314,727.6757 L869.79144,727.6757 L873.4494,726.33075 L876.51544,723.92676 L878.6914,720.6937 L879.6084,717.91376 L927.3614,717.91376 L927.3614,747.91376 z" fill="#FFC879" fill-rule="nonzero" opacity="0.9" stroke="black" stroke-width="3.15"/>
</g>
<g>
<path d="M1987.6986,496.4366 L1957.6986,496.4366 L1957.6986,483.18362 L1960.4785,482.2666 L1963.7115,480.0906 L1966.5586,476.1516 L1967.4606,473.3666 L1967.4606,468.50662 L1964.4005,462.47662 L1960.4785,459.60663 L1957.6986,458.6896 L1957.6986,408.68362 L1960.4785,407.7666 L1963.7115,405.5906 L1966.1156,402.52463 L1967.4606,398.8666 L1967.4606,394.00662 L1964.4005,387.97662 L1960.4785,385.10663 L1957.6986,384.1896 L1957.6986,8.683616 L1960.4785,7.7666154 L1964.4005,4.896615 L1967.4606,-1.1333847 L1967.4606,-5.993385 L1966.1156,-9.651384 L1963.7115,-12.717384 L1960.4785,-14.893385 L1957.6986,-15.810385 L1957.6986,-63.563385 L1987.6986,-63.563385 z" fill="#FFC879" fill-rule="nonzero" opacity="0.9" stroke="black" stroke-width="3.15"/>
</g>
<g>
<path d="M-319.9034,746.1855 L-319.9034,716.1855 L-306.6504,716.1855 L-305.7334,718.96545 L-303.5574,722.1985 L-299.6184,725.0455 L-296.8334,725.94745 L-291.9734,725.94745 L-285.9434,722.88745 L-283.0734,718.96545 L-282.1564,716.1855 L-232.1504,716.1855 L-231.2334,718.96545 L-229.0574,722.1985 L-225.9914,724.6025 L-222.3334,725.94745 L-217.4734,725.94745 L-211.4434,722.88745 L-208.5734,718.96545 L-207.6564,716.1855 L167.8496,716.1855 L168.7666,718.96545 L171.6366,722.88745 L177.6666,725.94745 L182.5266,725.94745 L186.1846,724.6025 L189.2506,722.1985 L191.4266,718.96545 L192.3436,716.1855 L240.0966,716.1855 L240.0966,746.1855 z" fill="#FFC879" fill-rule="nonzero" opacity="0.9" stroke="black" stroke-width="3.15"/>
</g>
<g>
<path d="M964.6782,230.87932 L404.67822,230.87932 L404.67822,200.87932 L964.6782,200.87932 z" fill="#FFC879" fill-rule="nonzero" opacity="0.9" stroke="black" stroke-width="3.15"/>
</g>
<g>
<path d="M-1964.8799,-118.65143 L-1967.3778,-118.76995 L-1970.7087,-119.08938 L-1974.7571,-120.072075 L-1978.6814,-121.43003 L-1983.1248,-123.71768 L-1986.5386,-126.146034 L-1989.0597,-128.3308 L-1991.9415,-131.3529 L-1994.3596,-134.75229 L-1995.6078,-136.91196 L-1997.1407,-139.88939 L-1998.4987,-143.81375 L-1999.4814,-147.86208 L-1999.8008,-151.19295 L-1999.9193,-153.69095 L-1999.8008,-156.18895 L-1999.4814,-159.51982 L-1998.4987,-163.56815 L-1997.1407,-167.49251 L-1995.6078,-170.46996 L-1994.3596,-172.62962 L-1992.4248,-175.34966 L-1990.24,-177.87085 L-1987.2179,-180.75264 L-1983.8185,-183.17075 L-1981.6588,-184.41895 L-1978.6814,-185.95187 L-1974.7571,-187.30983 L-1970.7087,-188.29253 L-1967.3778,-188.61195 L-1964.8799,-188.73047 L-1962.3818,-188.61195 L-1959.0509,-188.29253 L-1955.0027,-187.30983 L-1951.0782,-185.95187 L-1946.6349,-183.66422 L-1943.2211,-181.23587 L-1940.7,-179.0511 L-1937.8181,-176.02899 L-1935.4,-172.62962 L-1934.1519,-170.46996 L-1932.6189,-167.49251 L-1931.261,-163.56815 L-1930.2782,-159.51982 L-1929.9589,-156.18895 L-1929.8403,-153.69095 L-1929.9589,-151.19295 L-1930.2782,-147.86208 L-1931.261,-143.81375 L-1932.6189,-139.88939 L-1934.1519,-136.91196 L-1935.4,-134.75229 L-1937.335,-132.03224 L-1939.5197,-129.51105 L-1942.5417,-126.62927 L-1945.9412,-124.21116 L-1948.1008,-122.96295 L-1951.0782,-121.43003 L-1955.0027,-120.072075 L-1959.0509,-119.08938 L-1962.3818,-118.76995 z" fill="#FFC879" fill-rule="nonzero" opacity="0.9" stroke="black" stroke-width="3.15"/>
</g>
<g>
<path d="M-1964.861,-117.56279 L-1962.363,-117.44426 L-1959.0321,-117.12484 L-1954.9838,-116.142136 L-1951.0594,-114.78419 L-1946.6161,-112.49653 L-1943.2023,-110.068184 L-1940.681,-107.883415 L-1937.7993,-104.861305 L-1935.3812,-101.46193 L-1934.1329,-99.30226 L-1932.6001,-96.324814 L-1931.2421,-92.40047 L-1930.2594,-88.35214 L-1929.94,-85.02126 L-1929.8214,-82.52326 L-1929.94,-80.02526 L-1930.2594,-76.69438 L-1931.2421,-72.646065 L-1932.6001,-68.72171 L-1934.1329,-65.74426 L-1935.3812,-63.584595 L-1937.316,-60.86455 L-1939.5009,-58.34336 L-1942.523,-55.461582 L-1945.9224,-53.043472 L-1948.082,-51.79526 L-1951.0594,-50.26234 L-1954.9838,-48.90439 L-1959.0321,-47.921688 L-1962.363,-47.602264 L-1964.861,-47.483738 L-1967.359,-47.602264 L-1970.6898,-47.921688 L-1974.7382,-48.90439 L-1978.6626,-50.26234 L-1983.106,-52.55 L-1986.5197,-54.978344 L-1989.0409,-57.16311 L-1991.9227,-60.185223 L-1994.3408,-63.584595 L-1995.589,-65.74426 L-1997.122,-68.72171 L-1998.4799,-72.646065 L-1999.4625,-76.69438 L-1999.782,-80.02526 L-1999.9005,-82.52326 L-1999.782,-85.02126 L-1999.4625,-88.35214 L-1998.4799,-92.40047 L-1997.122,-96.324814 L-1995.589,-99.30226 L-1994.3408,-101.46193 L-1992.4059,-104.18198 L-1990.2212,-106.70316 L-1987.199,-109.584946 L-1983.7997,-112.00305 L-1981.64,-113.25127 L-1978.6626,-114.78419 L-1974.7382,-116.142136 L-1970.6898,-117.12484 L-1967.359,-117.44426 z" fill="#FFC879" fill-rule="nonzero" opacity="0.9" stroke="black" stroke-width="3.15"/>
</g>
<g>
<path d="M-1929.9122,-11.665546 L-1930.0308,-9.167546 L-1930.3502,-5.8366685 L-1931.3329,-1.788346 L-1932.6909,2.1360078 L-1934.9785,6.579399 L-1937.4069,9.993164 L-1939.5917,12.514355 L-1942.6138,15.396135 L-1946.0132,17.814245 L-1948.1729,19.062454 L-1951.1503,20.595377 L-1955.0746,21.953327 L-1959.1229,22.936028 L-1962.4539,23.255453 L-1964.9518,23.373978 L-1967.4498,23.255453 L-1970.7806,22.936028 L-1974.829,21.953327 L-1978.7533,20.595377 L-1981.7308,19.062454 L-1983.8905,17.814245 L-1986.6105,15.879371 L-1989.1317,13.694606 L-1992.0134,10.672495 L-1994.4316,7.273123 L-1995.6798,5.113454 L-1997.2128,2.1360078 L-1998.5707,-1.788346 L-1999.5533,-5.8366685 L-1999.8728,-9.167546 L-1999.9913,-11.665546 L-1999.8728,-14.163547 L-1999.5533,-17.494423 L-1998.5707,-21.542746 L-1997.2128,-25.4671 L-1994.925,-29.910492 L-1992.4967,-33.324257 L-1990.312,-35.845448 L-1987.2898,-38.727226 L-1983.8905,-41.14534 L-1981.7308,-42.393547 L-1978.7533,-43.926468 L-1974.829,-45.28442 L-1970.7806,-46.26712 L-1967.4498,-46.586548 L-1964.9518,-46.70507 L-1962.4539,-46.586548 L-1959.1229,-46.26712 L-1955.0746,-45.28442 L-1951.1503,-43.926468 L-1948.1729,-42.393547 L-1946.0132,-41.14534 L-1943.2931,-39.210464 L-1940.7719,-37.0257 L-1937.8901,-34.00359 L-1935.472,-30.604216 L-1934.2238,-28.444546 L-1932.6909,-25.4671 L-1931.3329,-21.542746 L-1930.3502,-17.494423 L-1930.0308,-14.163547 z" fill="#FFC879" fill-rule="nonzero" opacity="0.9" stroke="black" stroke-width="3.15"/>
</g>
<g>
<path d="M-1999.8744,58.426056 L-1999.756,55.928055 L-1999.4365,52.59718 L-1998.4537,48.548855 L-1997.0958,44.6245 L-1994.8082,40.18111 L-1992.3799,36.767345 L-1990.1951,34.246155 L-1987.173,31.364374 L-1983.7736,28.946264 L-1981.6139,27.698055 L-1978.6365,26.165133 L-1974.7122,24.807182 L-1970.6638,23.824482 L-1967.3329,23.505054 L-1964.835,23.386532 L-1962.3369,23.505054 L-1959.0061,23.824482 L-1954.9578,24.807182 L-1951.0333,26.165133 L-1948.0559,27.698055 L-1945.8962,28.946264 L-1943.1763,30.881138 L-1940.655,33.065903 L-1937.7732,36.088013 L-1935.3551,39.487385 L-1934.1069,41.647057 L-1932.574,44.6245 L-1931.2161,48.548855 L-1930.2334,52.59718 L-1929.914,55.928055 L-1929.7954,58.426056 L-1929.914,60.924057 L-1930.2334,64.25494 L-1931.2161,68.30325 L-1932.574,72.22761 L-1934.8617,76.671 L-1937.29,80.08476 L-1939.4747,82.60596 L-1942.4968,85.48774 L-1945.8962,87.905846 L-1948.0559,89.15405 L-1951.0333,90.68698 L-1954.9578,92.04493 L-1959.0061,93.027626 L-1962.3369,93.34705 L-1964.835,93.465576 L-1967.3329,93.34705 L-1970.6638,93.027626 L-1974.7122,92.04493 L-1978.6365,90.68698 L-1981.6139,89.15405 L-1983.7736,87.905846 L-1986.4937,85.97097 L-1989.0148,83.78621 L-1991.8966,80.7641 L-1994.3147,77.36472 L-1995.5629,75.205055 L-1997.0958,72.22761 L-1998.4537,68.30325 L-1999.4365,64.25494 L-1999.756,60.924057 z" fill="#FFC879" fill-rule="nonzero" opacity="0.9" stroke="black" stroke-width="3.15"/>
</g>
<g>
<path d="M-1964.7852,165.42877 L-1967.2831,165.31024 L-1970.614,164.99081 L-1974.6624,164.00812 L-1978.5867,162.65018 L-1983.03,160.36252 L-1986.4438,157.93416 L-1988.9651,155.7494 L-1991.8468,152.7273 L-1994.2649,149.32791 L-1995.5132,147.16824 L-1997.046,144.1908 L-1998.404,140.26645 L-1999.3867,136.21812 L-1999.7062,132.88725 L-1999.8247,130.38925 L-1999.7062,127.89125 L-1999.3867,124.56037 L-1998.404,120.51205 L-1997.046,116.58769 L-1995.5132,113.610245 L-1994.2649,111.45058 L-1992.3301,108.73054 L-1990.1453,106.20934 L-1987.1232,103.32757 L-1983.7238,100.909454 L-1981.5641,99.66125 L-1978.5867,98.12833 L-1974.6624,96.77037 L-1970.614,95.787674 L-1967.2831,95.46825 L-1964.7852,95.349724 L-1962.2871,95.46825 L-1958.9563,95.787674 L-1954.908,96.77037 L-1950.9835,98.12833 L-1946.5402,100.415985 L-1943.1265,102.84433 L-1940.6052,105.0291 L-1937.7235,108.05121 L-1935.3053,111.45058 L-1934.0571,113.610245 L-1932.5242,116.58769 L-1931.1663,120.51205 L-1930.1836,124.56037 L-1929.8641,127.89125 L-1929.7456,130.38925 L-1929.8641,132.88725 L-1930.1836,136.21812 L-1931.1663,140.26645 L-1932.5242,144.1908 L-1934.0571,147.16824 L-1935.3053,149.32791 L-1937.2402,152.04796 L-1939.4249,154.56915 L-1942.4471,157.45093 L-1945.8464,159.86903 L-1948.0061,161.11725 L-1950.9835,162.65018 L-1954.908,164.00812 L-1958.9563,164.99081 L-1962.2871,165.31024 z" fill="#FFC879" fill-rule="nonzero" opacity="0.9" stroke="black" stroke-width="3.15"/>
</g>
<g>
<path d="M-1964.9497,235.98288 L-1967.4478,235.86435 L-1970.7787,235.54492 L-1974.8269,234.56223 L-1978.7513,233.20427 L-1983.1947,230.91661 L-1986.6085,228.48827 L-1989.1296,226.3035 L-1992.0115,223.28139 L-1994.4296,219.88202 L-1995.6777,217.72235 L-1997.2107,214.7449 L-1998.5686,210.82056 L-1999.5514,206.77223 L-1999.8707,203.44135 L-1999.9893,200.94334 L-1999.8707,198.44534 L-1999.5514,195.11447 L-1998.5686,191.06615 L-1997.2107,187.1418 L-1995.6777,184.16435 L-1994.4296,182.00468 L-1992.4946,179.28464 L-1990.3099,176.76344 L-1987.2878,173.88167 L-1983.8884,171.46356 L-1981.7288,170.21535 L-1978.7513,168.68243 L-1974.8269,167.32448 L-1970.7787,166.34178 L-1967.4478,166.02235 L-1964.9497,165.90382 L-1962.4518,166.02235 L-1959.1208,166.34178 L-1955.0725,167.32448 L-1951.1482,168.68243 L-1946.7048,170.97008 L-1943.291,173.39844 L-1940.7699,175.58319 L-1937.8881,178.6053 L-1935.47,182.00468 L-1934.2218,184.16435 L-1932.6888,187.1418 L-1931.3309,191.06615 L-1930.3481,195.11447 L-1930.0288,198.44534 L-1929.9103,200.94334 L-1930.0288,203.44135 L-1930.3481,206.77223 L-1931.3309,210.82056 L-1932.6888,214.7449 L-1934.2218,217.72235 L-1935.47,219.88202 L-1937.4048,222.60207 L-1939.5896,225.12325 L-1942.6117,228.00504 L-1946.0111,230.42314 L-1948.1708,231.67136 L-1951.1482,233.20427 L-1955.0725,234.56223 L-1959.1208,235.54492 L-1962.4518,235.86435 z" fill="#FFC879" fill-rule="nonzero" opacity="0.9" stroke="black" stroke-width="3.15"/>
</g>
<g>
<path d="M-1929.6508,271.16373 L-1929.7693,273.6617 L-1930.0887,276.99258 L-1931.0714,281.04092 L-1932.4294,284.96527 L-1934.717,289.40866 L-1937.1454,292.82242 L-1939.3302,295.34363 L-1942.3523,298.2254 L-1945.7517,300.6435 L-1947.9114,301.89172 L-1950.8888,303.42465 L-1954.8131,304.7826 L-1958.8615,305.7653 L-1962.1924,306.08472 L-1964.6903,306.20325 L-1967.1884,306.08472 L-1970.5192,305.7653 L-1974.5675,304.7826 L-1978.492,303.42465 L-1981.4694,301.89172 L-1983.629,300.6435 L-1986.349,298.70862 L-1988.8702,296.52386 L-1991.7521,293.50177 L-1994.1702,290.1024 L-1995.4183,287.94272 L-1996.9513,284.96527 L-1998.3092,281.04092 L-1999.2919,276.99258 L-1999.6113,273.6617 L-1999.7299,271.16373 L-1999.6113,268.6657 L-1999.2919,265.33484 L-1998.3092,261.28653 L-1996.9513,257.36215 L-1994.6636,252.91876 L-1992.2352,249.505 L-1990.0505,246.98381 L-1987.0283,244.10204 L-1983.629,241.68393 L-1981.4694,240.43571 L-1978.492,238.90279 L-1974.5675,237.54485 L-1970.5192,236.56215 L-1967.1884,236.24272 L-1964.6903,236.12419 L-1962.1924,236.24272 L-1958.8615,236.56215 L-1954.8131,237.54485 L-1950.8888,238.90279 L-1947.9114,240.43571 L-1945.7517,241.68393 L-1943.0316,243.6188 L-1940.5105,245.80356 L-1937.6287,248.82567 L-1935.2106,252.22505 L-1933.9623,254.38472 L-1932.4294,257.36215 L-1931.0714,261.28653 L-1930.0887,265.33484 L-1929.7693,268.6657 z" fill="#FFC879" fill-rule="nonzero" opacity="0.9" stroke="black" stroke-width="3.15"/>
</g>
<g>
<path d="M165.13246,-34.33509 L165.25099,-36.83309 L165.57042,-40.163967 L166.55312,-44.21229 L167.91107,-48.136646 L170.19872,-52.580036 L172.62708,-55.9938 L174.81183,-58.51499 L177.83394,-61.396774 L181.23332,-63.814884 L183.39299,-65.063095 L186.37044,-66.596016 L190.29478,-67.953964 L194.34311,-68.93667 L197.67398,-69.25609 L200.17198,-69.37462 L202.66998,-69.25609 L206.00087,-68.93667 L210.0492,-67.953964 L213.97354,-66.596016 L216.95099,-65.063095 L219.11066,-63.814884 L221.8307,-61.88001 L224.35188,-59.695244 L227.23367,-56.673134 L229.65178,-53.27376 L230.9,-51.11409 L232.4329,-48.136646 L233.79086,-44.21229 L234.77356,-40.163967 L235.09299,-36.83309 L235.21152,-34.33509 L235.09299,-31.837091 L234.77356,-28.506214 L233.79086,-24.457891 L232.4329,-20.533537 L230.14525,-16.090145 L227.7169,-12.676381 L225.53214,-10.15519 L222.51003,-7.27341 L219.11066,-4.8552995 L216.95099,-3.6070914 L213.97354,-2.074169 L210.0492,-0.7162179 L206.00087,0.26648182 L202.66998,0.5859086 L200.17198,0.7044323 L197.67398,0.5859086 L194.34311,0.26648182 L190.29478,-0.7162179 L186.37044,-2.074169 L183.39299,-3.6070914 L181.23332,-4.8552995 L178.51328,-6.790174 L175.99208,-8.974939 L173.1103,-11.99705 L170.6922,-15.396422 L169.44398,-17.556091 L167.91107,-20.533537 L166.55312,-24.457891 L165.57042,-28.506214 L165.25099,-31.837091 z" fill="#FFC879" fill-rule="nonzero" opacity="0.9" stroke="black" stroke-width="3.15"/>
</g>
<g>
<path d="M200.11374,71.25695 L197.61574,71.13843 L194.28487,70.819 L190.23654,69.8363 L186.3122,68.47835 L181.8688,66.1907 L178.45503,63.762344 L175.93384,61.57758 L173.05206,58.55547 L170.63396,55.156097 L169.38574,52.99643 L167.85283,50.018982 L166.49487,46.094627 L165.51218,42.046307 L165.19275,38.715427 L165.07422,36.21743 L165.19275,33.71943 L165.51218,30.38855 L166.49487,26.340229 L167.85283,22.415874 L169.38574,19.438429 L170.63396,17.278759 L172.56883,14.558718 L174.75359,12.037527 L177.7757,9.155746 L181.17508,6.737636 L183.33475,5.4894285 L186.3122,3.9565058 L190.23654,2.5985548 L194.28487,1.6158551 L197.61574,1.2964283 L200.11374,1.1779046 L202.61174,1.2964283 L205.94263,1.6158551 L209.99095,2.5985548 L213.9153,3.9565058 L218.35869,6.2441626 L221.77246,8.672511 L224.29364,10.857276 L227.17543,13.879387 L229.59354,17.278759 L230.84175,19.438429 L232.37466,22.415874 L233.73262,26.340229 L234.71532,30.38855 L235.03474,33.71943 L235.15327,36.21743 L235.03474,38.715427 L234.71532,42.046307 L233.73262,46.094627 L232.37466,50.018982 L230.84175,52.99643 L229.59354,55.156097 L227.65866,57.87614 L225.47389,60.39733 L222.45178,63.27911 L219.05241,65.69722 L216.89275,66.94543 L213.9153,68.47835 L209.99095,69.8363 L205.94263,70.819 L202.61174,71.13843 z" fill="#FFC879" fill-rule="nonzero" opacity="0.9" stroke="black" stroke-width="3.15"/>
</g>
<g>
<path d="M235.33871,107.12596 L235.2202,109.62396 L234.90077,112.954834 L233.91806,117.00316 L232.56012,120.92751 L230.27246,125.3709 L227.84412,128.78467 L225.65935,131.30586 L222.63724,134.18764 L219.23785,136.60576 L217.07819,137.85396 L214.10075,139.38689 L210.17639,140.74483 L206.12807,141.72754 L202.7972,142.04697 L200.2992,142.16548 L197.8012,142.04697 L194.47032,141.72754 L190.422,140.74483 L186.49763,139.38689 L183.52019,137.85396 L181.36052,136.60576 L178.64049,134.67088 L176.1193,132.48611 L173.2375,129.464 L170.8194,126.06463 L169.5712,123.90496 L168.03827,120.92751 L166.68031,117.00316 L165.69762,112.954834 L165.37819,109.62396 L165.25967,107.12596 L165.37819,104.62796 L165.69762,101.29708 L166.68031,97.24876 L168.03827,93.3244 L170.32593,88.88101 L172.75427,85.46725 L174.93904,82.94606 L177.96115,80.06428 L181.36052,77.646164 L183.52019,76.39796 L186.49763,74.865036 L190.422,73.50709 L194.47032,72.52438 L197.8012,72.204956 L200.2992,72.08643 L202.7972,72.204956 L206.12807,72.52438 L210.17639,73.50709 L214.10075,74.865036 L217.07819,76.39796 L219.23785,77.646164 L221.9579,79.58104 L224.4791,81.76581 L227.36087,84.78792 L229.77899,88.18729 L231.02719,90.34696 L232.56012,93.3244 L233.91806,97.24876 L234.90077,101.29708 L235.2202,104.62796 z" fill="#FFC879" fill-rule="nonzero" opacity="0.9" stroke="black" stroke-width="3.15"/>
</g>
<g>
<path d="M264.47263,427.09885 L264.35413,429.59686 L264.0347,432.92773 L263.052,436.97604 L261.69403,440.9004 L259.40637,445.3438 L256.97803,448.75757 L254.79326,451.27875 L251.77115,454.16052 L248.37178,456.57864 L246.21211,457.82684 L243.23466,459.35977 L239.31032,460.7177 L235.262,461.7004 L231.9311,462.01984 L229.43312,462.13837 L226.93512,462.01984 L223.60423,461.7004 L219.55591,460.7177 L215.63156,459.35977 L212.65411,457.82684 L210.49445,456.57864 L207.7744,454.64377 L205.25322,452.459 L202.37143,449.4369 L199.95332,446.0375 L198.70511,443.87784 L197.1722,440.9004 L195.81424,436.97604 L194.83154,432.92773 L194.51212,429.59686 L194.39359,427.09885 L194.51212,424.60086 L194.83154,421.26996 L195.81424,417.22165 L197.1722,413.2973 L199.45985,408.8539 L201.8882,405.44016 L204.07297,402.91895 L207.09508,400.03717 L210.49445,397.61905 L212.65411,396.37085 L215.63156,394.83792 L219.55591,393.47998 L223.60423,392.49728 L226.93512,392.17786 L229.43312,392.05933 L231.9311,392.17786 L235.262,392.49728 L239.31032,393.47998 L243.23466,394.83792 L246.21211,396.37085 L248.37178,397.61905 L251.09183,399.55392 L253.61302,401.7387 L256.49478,404.7608 L258.9129,408.1602 L260.1611,410.31985 L261.69403,413.2973 L263.052,417.22165 L264.0347,421.26996 L264.35413,424.60086 z" fill="#FFC879" fill-rule="nonzero" opacity="0.9" stroke="black" stroke-width="3.15"/>
</g>
<g>
<path d="M200.12692,142.27448 L202.62492,142.393 L205.9558,142.71243 L210.00412,143.69513 L213.92847,145.05309 L218.37186,147.34073 L221.78563,149.76909 L224.30682,151.95384 L227.1886,154.97597 L229.6067,158.37534 L230.85492,160.535 L232.38783,163.51245 L233.74579,167.4368 L234.72849,171.48512 L235.04791,174.816 L235.16644,177.314 L235.04791,179.812 L234.72849,183.14288 L233.74579,187.19121 L232.38783,191.11555 L230.85492,194.093 L229.6067,196.25267 L227.67183,198.97272 L225.48708,201.4939 L222.46495,204.37569 L219.06558,206.7938 L216.90591,208.042 L213.92847,209.57492 L210.00412,210.93288 L205.9558,211.91557 L202.62492,212.235 L200.12692,212.35353 L197.62892,212.235 L194.29803,211.91557 L190.24971,210.93288 L186.32536,209.57492 L181.88197,207.28726 L178.4682,204.85892 L175.94702,202.67415 L173.06523,199.65204 L170.64713,196.25267 L169.39891,194.093 L167.866,191.11555 L166.50804,187.19121 L165.52534,183.14288 L165.20592,179.812 L165.08739,177.314 L165.20592,174.816 L165.52534,171.48512 L166.50804,167.4368 L167.866,163.51245 L169.39891,160.535 L170.64713,158.37534 L172.582,155.65529 L174.76677,153.1341 L177.78888,150.25232 L181.18825,147.83421 L183.34792,146.586 L186.32536,145.05309 L190.24971,143.69513 L194.29803,142.71243 L197.62892,142.393 z" fill="#FFC879" fill-rule="nonzero" opacity="0.9" stroke="black" stroke-width="3.15"/>
</g>
<g>
<path d="M169.89659,281.2502 L170.01512,278.75223 L170.33455,275.42136 L171.31725,271.37302 L172.6752,267.44867 L174.96286,263.00528 L177.3912,259.59152 L179.57597,257.0703 L182.59808,254.18854 L185.99745,251.77043 L188.15712,250.52223 L191.13457,248.9893 L195.05891,247.63135 L199.10724,246.64865 L202.43813,246.32922 L204.93613,246.21071 L207.43411,246.32922 L210.765,246.64865 L214.81332,247.63135 L218.73767,248.9893 L221.71512,250.52223 L223.87479,251.77043 L226.59483,253.7053 L229.11603,255.89008 L231.9978,258.91217 L234.41591,262.31155 L235.66412,264.47122 L237.19704,267.44867 L238.555,271.37302 L239.53769,275.42136 L239.85712,278.75223 L239.97565,281.2502 L239.85712,283.74823 L239.53769,287.0791 L238.555,291.12744 L237.19704,295.0518 L234.90938,299.49518 L232.48103,302.90894 L230.29626,305.4301 L227.27415,308.31192 L223.87479,310.73 L221.71512,311.97824 L218.73767,313.51114 L214.81332,314.8691 L210.765,315.8518 L207.43411,316.17123 L204.93613,316.28976 L202.43813,316.17123 L199.10724,315.8518 L195.05891,314.8691 L191.13457,313.51114 L188.15712,311.97824 L185.99745,310.73 L183.2774,308.79514 L180.75623,306.61038 L177.87444,303.58826 L175.45633,300.1889 L174.20811,298.02924 L172.6752,295.0518 L171.31725,291.12744 L170.33455,287.0791 L170.01512,283.74823 z" fill="#FFC879" fill-rule="nonzero" opacity="0.9" stroke="black" stroke-width="3.15"/>
</g>
<g>
<path d="M1053.346,711.84393 L1053.2274,714.3419 L1052.908,717.67285 L1051.9253,721.7211 L1050.5673,725.6455 L1048.2797,730.08887 L1045.8513,733.5027 L1043.6665,736.02386 L1040.6444,738.90564 L1037.245,741.3237 L1035.0853,742.57196 L1032.1079,744.10486 L1028.1836,745.4628 L1024.1353,746.4455 L1020.8044,746.76495 L1018.30634,746.8835 L1015.80835,746.76495 L1012.4775,746.4455 L1008.42914,745.4628 L1004.5048,744.10486 L1001.52734,742.57196 L999.3677,741.3237 L996.64764,739.38885 L994.12646,737.2041 L991.2447,734.182 L988.8266,730.7826 L987.57837,728.6229 L986.0455,725.6455 L984.6875,721.7211 L983.7048,717.67285 L983.3854,714.3419 L983.26685,711.84393 L983.3854,709.34595 L983.7048,706.0151 L984.6875,701.96674 L986.0455,698.0424 L988.33307,693.599 L990.7615,690.18524 L992.9462,687.66406 L995.9683,684.7823 L999.3677,682.36414 L1001.52734,681.11597 L1004.5048,679.583 L1008.42914,678.2251 L1012.4775,677.2424 L1015.80835,676.923 L1018.30634,676.80444 L1020.8044,676.923 L1024.1353,677.2424 L1028.1836,678.2251 L1032.1079,679.583 L1035.0853,681.11597 L1037.245,682.36414 L1039.9651,684.299 L1042.4862,686.4838 L1045.368,689.5059 L1047.7861,692.9053 L1049.0344,695.06494 L1050.5673,698.0424 L1051.9253,701.96674 L1052.908,706.0151 L1053.2274,709.34595 z" fill="#FFC879" fill-rule="nonzero" opacity="0.9" stroke="black" stroke-width="3.15"/>
</g>
<g>
<path d="M1088.5825,674.9885 L1091.0804,675.10706 L1094.4114,675.42645 L1098.4597,676.4092 L1102.384,677.7671 L1106.8274,680.05475 L1110.2412,682.48315 L1112.7623,684.6679 L1115.6442,687.69 L1118.0623,691.08936 L1119.3104,693.249 L1120.8434,696.2265 L1122.2013,700.1508 L1123.1841,704.19916 L1123.5034,707.53 L1123.622,710.028 L1123.5034,712.52606 L1123.1841,715.85693 L1122.2013,719.9052 L1120.8434,723.8296 L1119.3104,726.80707 L1118.0623,728.96674 L1116.1274,731.68677 L1113.9426,734.20795 L1110.9205,737.0897 L1107.5211,739.5078 L1105.3615,740.75604 L1102.384,742.28894 L1098.4597,743.6469 L1094.4114,744.62964 L1091.0804,744.94904 L1088.5825,745.06757 L1086.0845,744.94904 L1082.7535,744.62964 L1078.7053,743.6469 L1074.7809,742.28894 L1070.3375,740.0013 L1066.9237,737.57294 L1064.4026,735.3882 L1061.5208,732.3661 L1059.1027,728.96674 L1057.8545,726.80707 L1056.3215,723.8296 L1054.9636,719.9052 L1053.9808,715.85693 L1053.6615,712.52606 L1053.543,710.028 L1053.6615,707.53 L1053.9808,704.19916 L1054.9636,700.1508 L1056.3215,696.2265 L1057.8545,693.249 L1059.1027,691.08936 L1061.0376,688.3693 L1063.2223,685.84814 L1066.2444,682.9664 L1069.6438,680.5483 L1071.8035,679.30005 L1074.7809,677.7671 L1078.7053,676.4092 L1082.7535,675.42645 L1086.0845,675.10706 z" fill="#FFC879" fill-rule="nonzero" opacity="0.9" stroke="black" stroke-width="3.15"/>
</g>
<g>
<path d="M1833.7566,600.92566 L1836.2546,601.0442 L1839.5854,601.36365 L1843.6338,602.3463 L1847.5582,603.7043 L1852.0016,605.99194 L1855.4153,608.4203 L1857.9365,610.60504 L1860.8184,613.62714 L1863.2365,617.02655 L1864.4846,619.1862 L1866.0176,622.16364 L1867.3755,626.088 L1868.3582,630.13635 L1868.6776,633.4672 L1868.7961,635.9652 L1868.6776,638.4632 L1868.3582,641.79407 L1867.3755,645.8424 L1866.0176,649.7668 L1864.4846,652.7442 L1863.2365,654.9039 L1861.3015,657.6239 L1859.1168,660.1451 L1856.0947,663.02686 L1852.6953,665.445 L1850.5356,666.6932 L1847.5582,668.22614 L1843.6338,669.58405 L1839.5854,670.5668 L1836.2546,670.8862 L1833.7566,671.0047 L1831.2587,670.8862 L1827.9277,670.5668 L1823.8794,669.58405 L1819.9551,668.22614 L1815.5117,665.9385 L1812.0979,663.51013 L1809.5768,661.3254 L1806.695,658.3032 L1804.2769,654.9039 L1803.0287,652.7442 L1801.4957,649.7668 L1800.1377,645.8424 L1799.155,641.79407 L1798.8356,638.4632 L1798.7172,635.9652 L1798.8356,633.4672 L1799.155,630.13635 L1800.1377,626.088 L1801.4957,622.16364 L1803.0287,619.1862 L1804.2769,617.02655 L1806.2117,614.3065 L1808.3965,611.7853 L1811.4186,608.9035 L1814.818,606.4854 L1816.9777,605.2372 L1819.9551,603.7043 L1823.8794,602.3463 L1827.9277,601.36365 L1831.2587,601.0442 z" fill="#FFC879" fill-rule="nonzero" opacity="0.9" stroke="black" stroke-width="3.15"/>
</g>
<g>
<path d="M1868.7664,707.4419 L1868.6478,709.93994 L1868.3284,713.2708 L1867.3457,717.3191 L1865.9878,721.24347 L1863.7001,725.6869 L1861.2717,729.10065 L1859.087,731.6218 L1856.0648,734.5036 L1852.6655,736.9217 L1850.5059,738.1699 L1847.5284,739.7028 L1843.604,741.0608 L1839.5557,742.0435 L1836.2249,742.3629 L1833.7268,742.48145 L1831.2289,742.3629 L1827.898,742.0435 L1823.8496,741.0608 L1819.9253,739.7028 L1816.9479,738.1699 L1814.7882,736.9217 L1812.0681,734.9868 L1809.5469,732.80206 L1806.6652,729.77997 L1804.2471,726.3806 L1802.9988,724.22095 L1801.466,721.24347 L1800.1079,717.3191 L1799.1252,713.2708 L1798.8058,709.93994 L1798.6873,707.4419 L1798.8058,704.9439 L1799.1252,701.61304 L1800.1079,697.5647 L1801.466,693.6404 L1803.7535,689.19696 L1806.1819,685.7832 L1808.3667,683.262 L1811.3888,680.38025 L1814.7882,677.9621 L1816.9479,676.7139 L1819.9253,675.18097 L1823.8496,673.82306 L1827.898,672.84033 L1831.2289,672.52094 L1833.7268,672.4024 L1836.2249,672.52094 L1839.5557,672.84033 L1843.604,673.82306 L1847.5284,675.18097 L1850.5059,676.7139 L1852.6655,677.9621 L1855.3855,679.897 L1857.9067,682.0818 L1860.7886,685.1039 L1863.2067,688.50323 L1864.4548,690.6629 L1865.9878,693.6404 L1867.3457,697.5647 L1868.3284,701.61304 L1868.6478,704.9439 z" fill="#FFC879" fill-rule="nonzero" opacity="0.9" stroke="black" stroke-width="3.15"/>
</g>
<g>
<path d="M229.42697,534.95447 L226.92897,534.83594 L223.5981,534.51654 L219.54977,533.5338 L215.62543,532.17584 L211.18204,529.8882 L207.76826,527.45984 L205.24707,525.2751 L202.3653,522.253 L199.94719,518.85364 L198.69897,516.694 L197.16606,513.7165 L195.8081,509.79214 L194.82541,505.74384 L194.50598,502.41293 L194.38745,499.91495 L194.50598,497.41693 L194.82541,494.08606 L195.8081,490.03775 L197.16606,486.1134 L198.69897,483.13596 L199.94719,480.9763 L201.88206,478.25623 L204.06682,475.73505 L207.08894,472.85327 L210.48831,470.43515 L212.64798,469.18695 L215.62543,467.65402 L219.54977,466.29608 L223.5981,465.31335 L226.92897,464.99396 L229.42697,464.87543 L231.92497,464.99396 L235.25586,465.31335 L239.30418,466.29608 L243.22853,467.65402 L247.67192,469.94168 L251.0857,472.37003 L253.60687,474.55478 L256.48865,477.5769 L258.90677,480.9763 L260.15497,483.13596 L261.6879,486.1134 L263.04584,490.03775 L264.02856,494.08606 L264.348,497.41693 L264.4665,499.91495 L264.348,502.41293 L264.02856,505.74384 L263.04584,509.79214 L261.6879,513.7165 L260.15497,516.694 L258.90677,518.85364 L256.9719,521.57367 L254.78712,524.09485 L251.76501,526.9766 L248.36565,529.3947 L246.20598,530.64294 L243.22853,532.17584 L239.30418,533.5338 L235.25586,534.51654 L231.92497,534.83594 z" fill="#FFC879" fill-rule="nonzero" opacity="0.9" stroke="black" stroke-width="3.15"/>
</g>
<g>
<path d="M1940.1373,-717.9762 L1942.6354,-717.85767 L1945.9663,-717.53827 L1950.0145,-716.55554 L1953.939,-715.19763 L1958.3823,-712.91 L1961.7961,-710.4816 L1964.3173,-708.2969 L1967.1991,-705.2747 L1969.6172,-701.87537 L1970.8654,-699.7157 L1972.3983,-696.7382 L1973.7562,-692.8139 L1974.7389,-688.76556 L1975.0583,-685.4347 L1975.1769,-682.9367 L1975.0583,-680.4387 L1974.7389,-677.1078 L1973.7562,-673.0595 L1972.3983,-669.13513 L1970.8654,-666.1577 L1969.6172,-663.99805 L1967.6823,-661.27795 L1965.4976,-658.7568 L1962.4755,-655.875 L1959.076,-653.4569 L1956.9164,-652.2087 L1953.939,-650.6758 L1950.0145,-649.3178 L1945.9663,-648.33514 L1942.6354,-648.0157 L1940.1373,-647.89716 L1937.6394,-648.0157 L1934.3085,-648.33514 L1930.2601,-649.3178 L1926.3358,-650.6758 L1921.8925,-652.96344 L1918.4786,-655.3918 L1915.9575,-657.57654 L1913.0757,-660.59863 L1910.6576,-663.99805 L1909.4094,-666.1577 L1907.8765,-669.13513 L1906.5186,-673.0595 L1905.5358,-677.1078 L1905.2164,-680.4387 L1905.0979,-682.9367 L1905.2164,-685.4347 L1905.5358,-688.76556 L1906.5186,-692.8139 L1907.8765,-696.7382 L1909.4094,-699.7157 L1910.6576,-701.87537 L1912.5924,-704.5954 L1914.7772,-707.1166 L1917.7993,-709.99835 L1921.1987,-712.4165 L1923.3584,-713.6647 L1926.3358,-715.19763 L1930.2601,-716.55554 L1934.3085,-717.53827 L1937.6394,-717.85767 z" fill="#FFC879" fill-rule="nonzero" opacity="0.9" stroke="black" stroke-width="3.15"/>
</g>
<g>
<path d="M229.46844,536.4383 L231.96645,536.5568 L235.29732,536.8762 L239.34564,537.85895 L243.26999,539.21686 L247.7134,541.5045 L251.12715,543.93286 L253.64835,546.1176 L256.53012,549.1398 L258.94824,552.5391 L260.19644,554.6988 L261.72937,557.6763 L263.0873,561.6006 L264.07,565.6489 L264.38943,568.9798 L264.50797,571.4778 L264.38943,573.97577 L264.07,577.3067 L263.0873,581.355 L261.72937,585.27936 L260.19644,588.2568 L258.94824,590.41644 L257.01337,593.1365 L254.8286,595.6577 L251.80649,598.5395 L248.4071,600.9576 L246.24744,602.2058 L243.26999,603.7387 L239.34564,605.0967 L235.29732,606.07935 L231.96645,606.3988 L229.46844,606.51733 L226.97044,606.3988 L223.63957,606.07935 L219.59125,605.0967 L215.66689,603.7387 L211.2235,601.45105 L207.80974,599.0227 L205.28854,596.83795 L202.40675,593.81586 L199.98865,590.41644 L198.74045,588.2568 L197.20752,585.27936 L195.84956,581.355 L194.86687,577.3067 L194.54744,573.97577 L194.42892,571.4778 L194.54744,568.9798 L194.86687,565.6489 L195.84956,561.6006 L197.20752,557.6763 L198.74045,554.6988 L199.98865,552.5391 L201.92352,549.8191 L204.10829,547.2979 L207.1304,544.41614 L210.52977,541.998 L212.68944,540.7498 L215.66689,539.21686 L219.59125,537.85895 L223.63957,536.8762 L226.97044,536.5568 z" fill="#FFC879" fill-rule="nonzero" opacity="0.9" stroke="black" stroke-width="3.15"/>
</g>
<g>
<path d="M1896.9985,-64.37089 L1899.4966,-64.252365 L1902.8274,-63.932938 L1906.8757,-62.950237 L1910.8002,-61.592285 L1915.2435,-59.30463 L1918.6572,-56.87628 L1921.1785,-54.691517 L1924.0603,-51.669407 L1926.4784,-48.27003 L1927.7266,-46.110363 L1929.2595,-43.13292 L1930.6174,-39.208565 L1931.6001,-35.16024 L1931.9196,-31.829363 L1932.0381,-29.331364 L1931.9196,-26.833364 L1931.6001,-23.502485 L1930.6174,-19.454163 L1929.2595,-15.52981 L1927.7266,-12.552363 L1926.4784,-10.392694 L1924.5435,-7.672653 L1922.3588,-5.1514626 L1919.3365,-2.2696817 L1915.9373,0.14842845 L1913.7776,1.3966364 L1910.8002,2.929559 L1906.8757,4.28751 L1902.8274,5.27021 L1899.4966,5.5896363 L1896.9985,5.70816 L1894.5006,5.5896363 L1891.1697,5.27021 L1887.1213,4.28751 L1883.197,2.929559 L1878.7537,0.64190197 L1875.3398,-1.7864463 L1872.8186,-3.9712112 L1869.9369,-6.993322 L1867.5188,-10.392694 L1866.2705,-12.552363 L1864.7377,-15.52981 L1863.3796,-19.454163 L1862.397,-23.502485 L1862.0775,-26.833364 L1861.959,-29.331364 L1862.0775,-31.829363 L1862.397,-35.16024 L1863.3796,-39.208565 L1864.7377,-43.13292 L1866.2705,-46.110363 L1867.5188,-48.27003 L1869.4536,-50.990074 L1871.6384,-53.511265 L1874.6605,-56.393044 L1878.0599,-58.811157 L1880.2196,-60.059364 L1883.197,-61.592285 L1887.1213,-62.950237 L1891.1697,-63.932938 L1894.5006,-64.252365 z" fill="#FFC879" fill-rule="nonzero" opacity="0.9" stroke="black" stroke-width="3.15"/>
</g>
<g>
<path d="M1158.5498,677.3633 L1161.0477,677.4818 L1164.3787,677.8013 L1168.427,678.78394 L1172.3513,680.1419 L1176.7947,682.42957 L1180.2085,684.8579 L1182.7296,687.04266 L1185.6115,690.06476 L1188.0295,693.4642 L1189.2777,695.62384 L1190.8107,698.60126 L1192.1686,702.52563 L1193.1514,706.5739 L1193.4707,709.90485 L1193.5892,712.40283 L1193.4707,714.9008 L1193.1514,718.2317 L1192.1686,722.28 L1190.8107,726.20435 L1189.2777,729.1818 L1188.0295,731.3415 L1186.0947,734.0615 L1183.9099,736.5827 L1180.8878,739.4645 L1177.4884,741.8826 L1175.3287,743.1308 L1172.3513,744.66376 L1168.427,746.02167 L1164.3787,747.0044 L1161.0477,747.3238 L1158.5498,747.4423 L1156.0518,747.3238 L1152.7208,747.0044 L1148.6726,746.02167 L1144.7482,744.66376 L1140.3048,742.3761 L1136.891,739.94775 L1134.3699,737.76294 L1131.488,734.74084 L1129.07,731.3415 L1127.8218,729.1818 L1126.2888,726.20435 L1124.9309,722.28 L1123.9482,718.2317 L1123.6288,714.9008 L1123.5103,712.40283 L1123.6288,709.90485 L1123.9482,706.5739 L1124.9309,702.52563 L1126.2888,698.60126 L1127.8218,695.62384 L1129.07,693.4642 L1131.0049,690.7441 L1133.1896,688.2229 L1136.2117,685.3411 L1139.6111,682.92303 L1141.7708,681.6748 L1144.7482,680.1419 L1148.6726,678.78394 L1152.7208,677.8013 L1156.0518,677.4818 z" fill="#FFC879" fill-rule="nonzero" opacity="0.9" stroke="black" stroke-width="3.15"/>
</g>
<g>
<path d="M1929.692,670.7553 L1929.5735,673.2533 L1929.254,676.5842 L1928.2714,680.6325 L1926.9135,684.5569 L1924.6257,689.00024 L1922.1974,692.41406 L1920.0126,694.93524 L1916.9905,697.817 L1913.5912,700.2351 L1911.4315,701.48334 L1908.454,703.01624 L1904.5297,704.3742 L1900.4813,705.3569 L1897.1505,705.67633 L1894.6525,705.79486 L1892.1545,705.67633 L1888.8236,705.3569 L1884.7753,704.3742 L1880.851,703.01624 L1877.8735,701.48334 L1875.7139,700.2351 L1872.9938,698.30023 L1870.4725,696.1155 L1867.5908,693.0934 L1865.1727,689.694 L1863.9244,687.5343 L1862.3916,684.5569 L1861.0336,680.6325 L1860.0509,676.5842 L1859.7314,673.2533 L1859.6129,670.7553 L1859.7314,668.2573 L1860.0509,664.92645 L1861.0336,660.8781 L1862.3916,656.9538 L1864.6792,652.5104 L1867.1075,649.0966 L1869.2924,646.57544 L1872.3145,643.69366 L1875.7139,641.2755 L1877.8735,640.02734 L1880.851,638.4944 L1884.7753,637.1365 L1888.8236,636.15375 L1892.1545,635.83435 L1894.6525,635.7158 L1897.1505,635.83435 L1900.4813,636.15375 L1904.5297,637.1365 L1908.454,638.4944 L1911.4315,640.02734 L1913.5912,641.2755 L1916.3112,643.2104 L1918.8324,645.39514 L1921.7141,648.4173 L1924.1323,651.81665 L1925.3805,653.9763 L1926.9135,656.9538 L1928.2714,660.8781 L1929.254,664.92645 L1929.5735,668.2573 z" fill="#FFC879" fill-rule="nonzero" opacity="0.9" stroke="black" stroke-width="3.15"/>
</g>
<g>
<path d="M1946.1658,588.01624 L1948.6637,588.13477 L1951.9946,588.45416 L1956.043,589.4369 L1959.9673,590.79486 L1964.4106,593.08246 L1967.8245,595.51086 L1970.3457,597.6956 L1973.2274,600.7177 L1975.6455,604.11707 L1976.8938,606.27673 L1978.4266,609.2542 L1979.7847,613.1785 L1980.7673,617.22687 L1981.0868,620.55774 L1981.2053,623.0557 L1981.0868,625.5538 L1980.7673,628.88464 L1979.7847,632.933 L1978.4266,636.8573 L1976.8938,639.8348 L1975.6455,641.99445 L1973.7107,644.7145 L1971.5259,647.23566 L1968.5038,650.11743 L1965.1044,652.5355 L1962.9447,653.78375 L1959.9673,655.31665 L1956.043,656.6746 L1951.9946,657.65735 L1948.6637,657.97675 L1946.1658,658.0953 L1943.6677,657.97675 L1940.3369,657.65735 L1936.2886,656.6746 L1932.3643,655.31665 L1927.9208,653.029 L1924.5071,650.60065 L1921.9858,648.4159 L1919.1041,645.3938 L1916.6859,641.99445 L1915.4377,639.8348 L1913.9048,636.8573 L1912.5469,632.933 L1911.5642,628.88464 L1911.2448,625.5538 L1911.1262,623.0557 L1911.2448,620.55774 L1911.5642,617.22687 L1912.5469,613.1785 L1913.9048,609.2542 L1915.4377,606.27673 L1916.6859,604.11707 L1918.6208,601.39703 L1920.8055,598.87585 L1923.8278,595.9941 L1927.227,593.576 L1929.3867,592.32776 L1932.3643,590.79486 L1936.2886,589.4369 L1940.3369,588.45416 L1943.6677,588.13477 z" fill="#FFC879" fill-rule="nonzero" opacity="0.9" stroke="black" stroke-width="3.15"/>
</g>
<g>
<path d="M1932.0491,41.48021 L1931.9305,43.97821 L1931.6112,47.309086 L1930.6284,51.35741 L1929.2705,55.281765 L1926.9829,59.725155 L1924.5544,63.13892 L1922.3698,65.66011 L1919.3477,68.54189 L1915.9482,70.96 L1913.7886,72.208206 L1910.8112,73.741135 L1906.8868,75.09908 L1902.8385,76.08178 L1899.5076,76.40121 L1897.0096,76.51973 L1894.5116,76.40121 L1891.1807,76.08178 L1887.1323,75.09908 L1883.208,73.741135 L1880.2306,72.208206 L1878.0709,70.96 L1875.3508,69.02512 L1872.8297,66.84036 L1869.9479,63.818253 L1867.5298,60.418877 L1866.2816,58.25921 L1864.7487,55.281765 L1863.3907,51.35741 L1862.408,47.309086 L1862.0886,43.97821 L1861.9701,41.48021 L1862.0886,38.98221 L1862.408,35.651333 L1863.3907,31.603008 L1864.7487,27.678656 L1867.0364,23.235264 L1869.4647,19.821499 L1871.6494,17.300308 L1874.6715,14.418528 L1878.0709,12.000418 L1880.2306,10.75221 L1883.208,9.219287 L1887.1323,7.8613358 L1891.1807,6.878636 L1894.5116,6.5592093 L1897.0096,6.4406857 L1899.5076,6.5592093 L1902.8385,6.878636 L1906.8868,7.8613358 L1910.8112,9.219287 L1913.7886,10.75221 L1915.9482,12.000418 L1918.6683,13.935292 L1921.1895,16.120056 L1924.0713,19.142168 L1926.4894,22.54154 L1927.7375,24.70121 L1929.2705,27.678656 L1930.6284,31.603008 L1931.6112,35.651333 L1931.9305,38.98221 z" fill="#FFC879" fill-rule="nonzero" opacity="0.9" stroke="black" stroke-width="3.15"/>
</g>
<g>
<path d="M264.42227,643.6888 L264.30374,646.18677 L263.9843,649.51764 L263.00162,653.566 L261.64368,657.4903 L259.35602,661.9337 L256.92767,665.3475 L254.7429,667.86865 L251.7208,670.7504 L248.32141,673.1686 L246.16174,674.41675 L243.1843,675.9497 L239.25995,677.3076 L235.21162,678.29034 L231.88075,678.60974 L229.38275,678.7283 L226.88475,678.60974 L223.55386,678.29034 L219.50554,677.3076 L215.58119,675.9497 L212.60374,674.41675 L210.44408,673.1686 L207.72403,671.2337 L205.20285,669.0489 L202.32106,666.0268 L199.90295,662.62744 L198.65474,660.4678 L197.12183,657.4903 L195.76387,653.566 L194.78117,649.51764 L194.46175,646.18677 L194.34322,643.6888 L194.46175,641.19073 L194.78117,637.85986 L195.76387,633.8116 L197.12183,629.8872 L199.40948,625.4438 L201.83783,622.03 L204.0226,619.50885 L207.04471,616.6271 L210.44408,614.209 L212.60374,612.96075 L215.58119,611.42786 L219.50554,610.0699 L223.55386,609.08716 L226.88475,608.76776 L229.38275,608.64923 L231.88075,608.76776 L235.21162,609.08716 L239.25995,610.0699 L243.1843,611.42786 L246.16174,612.96075 L248.32141,614.209 L251.04146,616.14386 L253.56265,618.3286 L256.44443,621.3507 L258.86255,624.75006 L260.11075,626.9097 L261.64368,629.8872 L263.00162,633.8116 L263.9843,637.85986 L264.30374,641.19073 z" fill="#FFC879" fill-rule="nonzero" opacity="0.9" stroke="black" stroke-width="3.15"/>
</g>
<g>
<path d="M1914.3895,714.6186 L1914.508,712.1206 L1914.8274,708.78973 L1915.8102,704.7414 L1917.1681,700.8171 L1919.4557,696.37366 L1921.884,692.9599 L1924.0688,690.4387 L1927.091,687.55695 L1930.4904,685.1388 L1932.65,683.8906 L1935.6274,682.35767 L1939.5518,680.99976 L1943.6001,680.017 L1946.931,679.69763 L1949.429,679.5791 L1951.927,679.69763 L1955.2579,680.017 L1959.3062,680.99976 L1963.2306,682.35767 L1966.208,683.8906 L1968.3677,685.1388 L1971.0878,687.07367 L1973.6089,689.2585 L1976.4907,692.2806 L1978.9088,695.67993 L1980.157,697.8396 L1981.69,700.8171 L1983.0479,704.7414 L1984.0305,708.78973 L1984.35,712.1206 L1984.4685,714.6186 L1984.35,717.11664 L1984.0305,720.4475 L1983.0479,724.4958 L1981.69,728.42017 L1979.4022,732.8635 L1976.9739,736.27734 L1974.7892,738.7985 L1971.7671,741.6803 L1968.3677,744.0984 L1966.208,745.3466 L1963.2306,746.8795 L1959.3062,748.2375 L1955.2579,749.22015 L1951.927,749.5396 L1949.429,749.65814 L1946.931,749.5396 L1943.6001,749.22015 L1939.5518,748.2375 L1935.6274,746.8795 L1932.65,745.3466 L1930.4904,744.0984 L1927.7703,742.1635 L1925.2491,739.97876 L1922.3673,736.95667 L1919.9492,733.55725 L1918.701,731.3976 L1917.1681,728.42017 L1915.8102,724.4958 L1914.8274,720.4475 L1914.508,717.11664 z" fill="#FFC879" fill-rule="nonzero" opacity="0.9" stroke="black" stroke-width="3.15"/>
</g>
<g>
<path d="M1228.5498,745.5031 L1226.0518,745.3846 L1222.7208,745.0651 L1218.6726,744.08246 L1214.7482,742.7245 L1210.3048,740.4368 L1206.891,738.0085 L1204.3699,735.8237 L1201.488,732.8016 L1199.07,729.4022 L1197.8218,727.24255 L1196.2888,724.26514 L1194.9309,720.34076 L1193.9481,716.2924 L1193.6288,712.96155 L1193.5103,710.46356 L1193.6288,707.9656 L1193.9481,704.6347 L1194.9309,700.58636 L1196.2888,696.662 L1197.8218,693.6846 L1199.07,691.5249 L1201.0049,688.8049 L1203.1896,686.2836 L1206.2117,683.40186 L1209.6111,680.98376 L1211.7708,679.73553 L1214.7482,678.20264 L1218.6726,676.84467 L1222.7208,675.862 L1226.0518,675.54254 L1228.5498,675.424 L1231.0477,675.54254 L1234.3787,675.862 L1238.427,676.84467 L1242.3513,678.20264 L1246.7947,680.4903 L1250.2085,682.91864 L1252.7296,685.1034 L1255.6115,688.12555 L1258.0295,691.5249 L1259.2777,693.6846 L1260.8107,696.662 L1262.1686,700.58636 L1263.1514,704.6347 L1263.4707,707.9656 L1263.5892,710.46356 L1263.4707,712.96155 L1263.1514,716.2924 L1262.1686,720.34076 L1260.8107,724.26514 L1259.2777,727.24255 L1258.0295,729.4022 L1256.0947,732.12225 L1253.9099,734.64343 L1250.8878,737.52527 L1247.4884,739.94336 L1245.3287,741.1916 L1242.3513,742.7245 L1238.427,744.08246 L1234.3787,745.0651 L1231.0477,745.3846 z" fill="#FFC879" fill-rule="nonzero" opacity="0.9" stroke="black" stroke-width="3.15"/>
</g>
</g>
<g/>
<g/>
<g/>
</svg>