<svg viewBox="-52.54894425130179 -27.246462892263683 107.97742261777286 54.81904634912199" xmlns="http://www.w3.org/2000/svg">
<g>
<path d="M40.005634,-10.231703 L41.502403,-10.359983 L42.9332,-11.158846 L44.137455,-12.017324 L45.508636,-13.173885 L46.903664,-14.497373 L48.131763,-15.975863 L49.14525,-17.990904 L49.574486,-20.10133 L49.30025,-21.675207 L48.417923,-22.593302 L46.617504,-22.831768 L44.984013,-22.307142 L43.79168,-21.138657 L43.672447,-19.684013 L44.137455,-18.730148 L44.948242,-18.467836 L45.84249,-17.87167 L45.830566,-16.798573 L44.98161,-15.982681 L42.97475,-15.982681 L41.422276,-16.853582 L40.324184,-18.292463 L40.286316,-19.958534 L40.475643,-21.851799 L41.498005,-23.214949 L42.97475,-24.80529 L45.776783,-25.827652 L48.238026,-25.941248 L50.131287,-25.221807 L51.79736,-23.782927 L52.81972,-21.511011 L52.857586,-19.011904 L52.22217,-16.848963 L50.672268,-13.44779 L48.347416,-10.649358 L45.355335,-8.24721 L42.457993,-6.881795 L38.128628,-6.115831 L33.799267,-6.282345 L30.36908,-6.9484005 L36.00754,5.221871 L43.037624,11.878255 L46.205994,23.097075 L44.611847,24.810783 L44.57199,25.40859 L43.854626,25.807127 L40.128304,25.946615 L39.21167,25.049906 L39.21167,23.674953 L40.128304,22.957586 L42.081135,22.419561 L40.02689,17.29603 L33.199818,14.032357 L31.368164,12.533731 L20.877785,6.4060183 L17.94714,15.098046 L18.479984,16.729883 L18.879618,19.127684 L10.0543785,25.521818 L6.157952,25.988058 L4.0931787,25.588425 L3.5270317,24.422827 L4.3262987,23.190624 L6.0580435,22.990807 L7.3235497,23.323835 L12.723783,19.946487 L12.620739,17.937143 L11.976718,15.3353 L8.913363,6.09694 L8.173107,5.7350416 L0.85059446,7.4338646 L-5.8568273,7.3459945 L-10.133175,6.555163 L-11.041166,18.036863 L-12.7692795,25.974468 L-15.376095,26.267368 L-19.535282,26.120918 L-20.712513,25.549519 L-20.435059,24.408876 L-18.754923,23.268234 L-15.903317,23.268234 L-15.688678,22.591173 L-18.835358,8.207655 L-19.385288,9.6030855 L-34.771175,19.427408 L-35.703655,21.991724 L-38.334576,24.056496 L-41.831367,25.421911 L-42.897057,25.188791 L-43.79623,23.62356 L-43.563114,21.325668 L-42.164394,19.360804 L-36.536224,13.999054 L-31.773869,9.714623 L-29.233753,7.475877 L-30.353127,5.107972 L-30.439232,3.4289124 L-30.11646,1.6820661 L-30.631678,0.5228291 L-31.919718,-0.37879956 L-37.89623,-1.2804283 L-40.549595,0.8834806 L-44.001545,3.6656492 L-45.057735,3.7429316 L-46.70643,1.5790228 L-47.865665,1.244132 L-49.23099,-0.48184285 L-49.978054,-1.6153189 L-48.200558,-4.5262914 L-48.200558,-6.741722 L-44.362194,-10.270954 L-43.795456,-12.512146 L-42.73926,-13.542579 L-41.42546,-12.975841 L-39.982857,-14.547251 L-38.308403,-13.001601 L-29.455906,-14.441492 L-25.246115,-15.469464 L-22.896465,-16.350584 L-20.742619,-16.301632 L-18.344017,-15.469464 L-13.204157,-13.560373 L-10.952409,-13.217716 L-3.3160453,-13.658276 L3.977661,-14.490443 L11.85878,-15.322612 L19.446192,-15.2247095 L27.082556,-13.9519825 L33.984653,-11.308625 z" fill="#FFC879" stroke="black" stroke-width="0.5481904634912199"/>
<path d="M-44.888992,-6.1965957 L-42.87494,-6.1021934 L-43.794483,-4.850588 L-45.659122,-4.8761306 z" fill="#FFFFFF" stroke="black" stroke-width="0.27409523174560996"/>
</g>
<g>
<path d="M-31.42558,-6.1164303 L-34.41648,-5.882967 L-34.33866,-4.8859997 L-36.410416,-5.7273254 L-39.401318,-5.493862 L-42.3144,-4.263432 L-43.700474,-9.170448 L-43.01479,-13.236138 L-38.949097,-12.550455 L-31.970327,-13.0952015 z" fill="#CC824A" fill-rule="nonzero" opacity="0.9" stroke="black" stroke-width="0.27409523174560996"/>
<path d="M-30.384888,-2.682928 L-30.59915,-5.6752667 L-31.596596,-5.6038456 L-30.741993,-7.6701593 L-30.956255,-10.662498 L-32.167965,-13.583416 L-27.252155,-14.937967 L-23.190948,-14.226205 L-23.90271,-10.164999 L-23.402763,-3.1828754 z" fill="#CC824A" fill-rule="nonzero" opacity="0.9" stroke="black" stroke-width="0.27409523174560996"/>
<path d="M-28.49735,9.277103 L-28.752644,6.287986 L-29.749016,6.373083 L-28.922838,4.2952404 L-29.17813,1.3061224 L-30.429794,-1.5978984 L-25.533028,-3.0197573 L-21.46244,-2.3637736 L-22.118423,1.7068142 L-21.522743,8.681423 z" fill="#CC824A" fill-rule="nonzero" opacity="0.9" stroke="black" stroke-width="0.27409523174560996"/>
<path d="M-22.285236,-2.9816191 L-22.267845,-5.981569 L-23.267828,-5.987366 L-22.25625,-7.981535 L-22.23886,-10.981484 L-23.221449,-13.987231 L-18.215736,-14.958228 L-14.221601,-13.935056 L-15.244774,-9.94092 L-15.285355,-2.9410377 z" fill="#CC824A" fill-rule="nonzero" opacity="0.9" stroke="black" stroke-width="0.27409523174560996"/>
<path d="M-18.5518,9.482521 L-18.924213,6.5057263 L-19.916477,6.629864 L-19.17249,4.5211964 L-19.544903,1.5444015 L-20.90958,-1.3082554 L-16.072393,-2.92121 L-11.979197,-2.4254968 L-12.47491,1.6677011 L-11.605945,8.613556 z" fill="#CC824A" fill-rule="nonzero" opacity="0.9" stroke="black" stroke-width="0.27409523174560996"/>
<path d="M-3.2280428,-5.694921 L-6.2280397,-5.6991925 L-6.2294636,-4.6991935 L-8.228038,-5.7020397 L-11.228035,-5.706311 L-14.229456,-4.7105837 L-15.222336,-9.712003 L-14.216641,-13.710574 L-10.218069,-12.704881 L-3.2180765,-12.694914 z" fill="#CC824A" fill-rule="nonzero" opacity="0.9" stroke="black" stroke-width="0.27409523174560996"/>
<path d="M-12.089076,-4.185798 L-9.099909,-4.440513 L-9.184814,-5.4369025 L-7.107131,-4.6103234 L-4.117964,-4.865039 L-1.2137016,-6.116143 L0.20721294,-1.2191031 L-0.44955567,2.8513582 L-4.520017,2.1945896 L-11.4947405,2.7889254 z" fill="#CC824A" fill-rule="nonzero" opacity="0.9" stroke="black" stroke-width="0.27409523174560996"/>
<path d="M0.39865616,-2.0944848 L0.12685828,-5.082147 L-0.86902916,-4.9915476 L-0.054340318,-7.0739217 L-0.3261382,-10.061584 L-1.5938236,-12.958647 L3.2950144,-14.407531 L7.3691635,-13.774041 L6.735673,-9.699892 L7.3698683,-2.72868 z" fill="#CC824A" fill-rule="nonzero" opacity="0.9" stroke="black" stroke-width="0.27409523174560996"/>
<path d="M7.354076,-2.9830086 L7.375791,-13.982987 L9.377761,-14.979037 L10.375785,-13.977065 L12.375781,-13.973117 L13.373805,-12.971145 L12.365911,-8.973126 L13.359986,-5.971158 L12.354066,-2.973138 L10.352096,-1.9770882 z" fill="#CC824A" fill-rule="nonzero" opacity="0.9" stroke="black" stroke-width="0.27409523174560996"/>
<path d="M11.768778,3.465063 L0.77815866,3.9192448 L-0.30356702,1.9622395 L0.654291,0.921803 L0.5717125,-1.0764915 L1.5295706,-2.1169279 L5.5674486,-1.2829376 L8.523602,-2.4059525 L11.562332,-1.530673 L12.644058,0.42633224 z" fill="#CC824A" fill-rule="nonzero" opacity="0.9" stroke="black" stroke-width="0.27409523174560996"/>
<path d="M18.91214,-14.145647 L18.921104,-3.145651 L16.92192,-2.1440215 L15.921106,-3.1432061 L13.921107,-3.141576 L12.920292,-4.140761 L13.917032,-8.141575 L12.914587,-11.1407585 L13.912142,-14.141573 L15.911326,-15.143202 z" fill="#CC824A" fill-rule="nonzero" opacity="0.9" stroke="black" stroke-width="0.27409523174560996"/>
<path d="M10.60378,7.917962 L13.495804,-2.6950579 L15.688355,-3.1340551 L16.390265,-1.9063239 L18.319904,-1.3805013 L19.021812,-0.1527699 L17.005348,3.4435987 L17.181433,6.6009703 L15.427879,9.232519 L13.235328,9.671516 z" fill="#CC824A" fill-rule="nonzero" opacity="0.9" stroke="black" stroke-width="0.27409523174560996"/>
<path d="M18.921467,-2.9496186 L18.912785,-13.9496155 L20.911995,-14.951193 L21.912783,-13.9519825 L23.912783,-13.953562 L24.913572,-12.954351 L23.916729,-8.953563 L24.919096,-5.9543533 L23.921465,-2.953565 L21.922255,-1.9519866 z" fill="#CC824A" fill-rule="nonzero" opacity="0.9" stroke="black" stroke-width="0.27409523174560996"/>
<path d="M30.50232,2.393698 L19.608295,3.9169338 L18.340979,2.0746782 L19.192867,0.9458363 L18.915916,-1.0348953 L19.767805,-2.163737 L23.867744,-1.7272751 L26.700367,-3.1330688 L29.80994,-2.558131 L31.077257,-0.7158753 z" fill="#CC824A" fill-rule="nonzero" opacity="0.9" stroke="black" stroke-width="0.27409523174560996"/>
<path d="M24.588528,3.2627313 L35.52192,4.4714446 L36.296097,6.5692167 L35.19227,7.453278 L34.972504,9.441167 L33.868675,10.325229 L30.002779,8.891752 L26.911064,9.556047 L24.039112,8.232454 L23.264935,6.1346817 z" fill="#CC824A" fill-rule="nonzero" opacity="0.9" stroke="black" stroke-width="0.27409523174560996"/>
<path d="M-43.82833,2.3948302 L-49.64486,-1.6261142 L-47.85845,-5.2050457 L-40.702118,-3.8683002 L-40.70059,-1.6322328 L-41.14719,-0.73749983 L-40.69906,0.6038347 L-42.040394,1.051966 z" fill="#CC824A" fill-rule="nonzero" opacity="0.9" stroke="black" stroke-width="0.27409523174560996"/>
<path d="M-11.282714,11.09805 L-12.664267,18.03284 L-16.658274,17.813953 L-18.272226,10.714999 L-16.2205,9.82594 L-15.221999,9.880662 L-14.168776,8.936882 L-13.224996,9.990106 z" fill="#CC824A" fill-rule="nonzero" opacity="0.9" stroke="black" stroke-width="0.27409523174560996"/>
<path d="M17.847418,11.337368 L16.914745,18.346657 L12.91493,18.385103 L10.84774,11.404651 L12.838037,10.385473 L13.83799,10.375861 L14.828332,9.366296 L15.837897,10.356638 z" fill="#CC824A" fill-rule="nonzero" opacity="0.9" stroke="black" stroke-width="0.27409523174560996"/>
<path d="M38.812084,8.064201 L42.021957,14.364733 L38.75045,16.666306 L33.086945,12.091955 L34.147305,10.123292 L34.965183,9.547898 L35.207664,8.154628 L36.600937,8.397112 z" fill="#CC824A" fill-rule="nonzero" opacity="0.9" stroke="black" stroke-width="0.27409523174560996"/>
<path d="M-39.70667,-4.8376555 L-31.706728,-4.8683877 L-31.699043,-2.8684025 L-33.699028,-2.8607194 L-35.702858,-3.853029 L-36.70285,-3.8491874 L-37.699,-2.8453534 L-40.69898,-2.8338287 z" fill="#CC824A" fill-rule="nonzero" opacity="0.9" stroke="black" stroke-width="0.27409523174560996"/>
<path d="M-37.655106,18.080692 L-42.110516,24.725191 L-43.771637,23.61134 L-42.657787,21.950214 L-40.71337,20.846016 L-40.15645,20.015453 L-40.430084,18.627966 L-38.759304,16.13628 z" fill="#CC824A" fill-rule="nonzero" opacity="0.9" stroke="black" stroke-width="0.27409523174560996"/>
<path d="M-35.40978,16.028738 L-38.338333,23.473438 L-40.19951,22.7413 L-39.46737,20.880125 L-37.80464,19.38502 L-37.438572,18.454432 L-38.00309,17.157776 L-36.904884,14.366013 z" fill="#CC824A" fill-rule="nonzero" opacity="0.9" stroke="black" stroke-width="0.27409523174560996"/>
<path d="M-36.124245,13.741477 L-30.211025,8.35317 L-28.863949,9.831474 L-30.342255,11.178552 L-32.4941,11.786476 L-33.23325,12.460014 L-33.298862,13.8727045 L-35.51632,15.89332 z" fill="#CC824A" fill-rule="nonzero" opacity="0.9" stroke="black" stroke-width="0.27409523174560996"/>
<path d="M-29.493376,13.250823 L-34.673046,19.347628 L-36.197247,18.052711 L-34.90233,16.52851 L-32.84531,15.651767 L-32.197853,14.889667 L-32.312496,13.480107 L-30.37012,11.193806 z" fill="#CC824A" fill-rule="nonzero" opacity="0.9" stroke="black" stroke-width="0.27409523174560996"/>
<path d="M-4.081784,4.566118 L-12.077093,4.840011 L-12.145567,2.8411837 L-10.14674,2.7727103 L-8.113675,3.7036507 L-7.1142616,3.669414 L-6.1490846,2.6357634 L-3.1508431,2.5330534 z" fill="#CC824A" fill-rule="nonzero" opacity="0.9" stroke="black" stroke-width="0.27409523174560996"/>
<path d="M-8.439369,4.7193913 L-0.45120555,5.1544113 L-0.55996054,7.1514525 L-2.5570014,7.0426974 L-4.499665,5.935422 L-5.498185,5.8810444 L-6.551083,6.825187 L-9.546644,6.662055 z" fill="#CC824A" fill-rule="nonzero" opacity="0.9" stroke="black" stroke-width="0.27409523174560996"/>
<path d="M-21.873606,10.932793 L-29.609205,12.972523 L-30.119137,11.038622 L-28.185238,10.52869 L-25.99637,10.985707 L-25.02942,10.7307415 L-24.317436,9.508825 L-21.416588,8.743926 z" fill="#CC824A" fill-rule="nonzero" opacity="0.9" stroke="black" stroke-width="0.27409523174560996"/>
<path d="M26.96511,-13.297642 L26.966787,-5.297642 L24.966787,-5.297223 L24.966368,-7.2972226 L25.965948,-9.297432 L25.965738,-10.297432 L24.965528,-11.297223 L24.964901,-14.297223 z" fill="#CC824A" fill-rule="nonzero" opacity="0.9" stroke="black" stroke-width="0.27409523174560996"/>
<path d="M28.994463,-12.9774 L29.03466,-4.977501 L27.034687,-4.9674516 L27.024637,-6.9674263 L28.014574,-8.972425 L28.00955,-9.972413 L27.004538,-10.967376 L26.989464,-13.967338 z" fill="#CC824A" fill-rule="nonzero" opacity="0.9" stroke="black" stroke-width="0.27409523174560996"/>
<path d="M12.689787,23.027382 L5.1834884,25.794235 L4.4917746,23.917662 L6.368349,23.225948 L8.59078,23.47252 L9.529068,23.126665 L10.121498,21.84252 L12.93636,20.804949 z" fill="#CC824A" fill-rule="nonzero" opacity="0.9" stroke="black" stroke-width="0.27409523174560996"/>
<path d="M36.970287,-8.670853 L29.017921,-9.542553 L29.235847,-11.530644 L31.223938,-11.312719 L33.10307,-10.100748 L34.097115,-9.991786 L35.200123,-10.876869 L38.18226,-10.549981 z" fill="#CC824A" fill-rule="nonzero" opacity="0.9" stroke="black" stroke-width="0.27409523174560996"/>
<path d="M43.58512,-8.944411 L36.065502,-6.213969 L35.382893,-8.093874 L37.2628,-8.7764845 L39.484005,-8.519143 L40.423958,-8.860448 L41.022606,-10.1417055 L43.842464,-11.165621 z" fill="#CC824A" fill-rule="nonzero" opacity="0.9" stroke="black" stroke-width="0.27409523174560996"/>
<path d="M51.61536,-17.98265 L47.250355,-11.278418 L45.5743,-12.369669 L46.66555,-14.045728 L48.59483,-15.17616 L49.140453,-16.014189 L48.848053,-17.397844 L50.48493,-19.91193 z" fill="#CC824A" fill-rule="nonzero" opacity="0.9" stroke="black" stroke-width="0.27409523174560996"/>
<path d="M42.111507,22.765638 L41.5264,14.787065 L43.52104,14.640787 L43.66732,16.635431 L42.816277,18.703213 L42.889416,19.700535 L43.959877,20.624718 L44.17929,23.616682 z" fill="#CC824A" fill-rule="nonzero" opacity="0.9" stroke="black" stroke-width="0.27409523174560996"/>
<path d="M-32.865273,-1.8023413 L-40.85122,-1.3283371 L-39.912224,-2.3858306 L-33.922768,-2.741334 z" fill="#CC824A" fill-rule="nonzero" opacity="0.9" stroke="black" stroke-width="0.27409523174560996"/>
<path d="M-20.839762,-1.069497 L-20.739054,6.929869 L-21.751564,5.942537 L-21.827093,-0.056987904 z" fill="#CC824A" fill-rule="nonzero" opacity="0.9" stroke="black" stroke-width="0.27409523174560996"/>
<path d="M-20.664557,25.492361 L-13.41475,22.110008 L-13.898182,23.439028 L-19.335537,25.975792 z" fill="#CC824A" fill-rule="nonzero" opacity="0.9" stroke="black" stroke-width="0.27409523174560996"/>
<path d="M-12.943084,19.876743 L-11.4647,12.01453 L-10.666721,13.182105 L-11.775509,19.078764 z" fill="#CC824A" fill-rule="nonzero" opacity="0.9" stroke="black" stroke-width="0.27409523174560996"/>
<path d="M-3.809118,4.01756 L4.190792,3.9796598 L3.195541,4.984386 L-2.8043916,5.012811 z" fill="#CC824A" fill-rule="nonzero" opacity="0.9" stroke="black" stroke-width="0.27409523174560996"/>
<path d="M18.209627,2.0959837 L18.19066,10.095962 L17.193033,9.093594 L17.207258,3.09361 z" fill="#CC824A" fill-rule="nonzero" opacity="0.9" stroke="black" stroke-width="0.27409523174560996"/>
<path d="M31.216125,-0.27520362 L29.039694,-7.9734597 L30.274029,-7.2832317 L31.906353,-1.5095396 z" fill="#CC824A" fill-rule="nonzero" opacity="0.9" stroke="black" stroke-width="0.27409523174560996"/>
<path d="M-26.212315,12.616258 L-32.277824,17.832539 L-32.17167,16.422314 L-27.622538,12.510104 z" fill="#CC824A" fill-rule="nonzero" opacity="0.9" stroke="black" stroke-width="0.27409523174560996"/>
<path d="M42.554577,-24.229992 L42.545746,-16.229998 L41.546852,-17.2311 L41.553474,-23.231096 z" fill="#CC824A" fill-rule="nonzero" opacity="0.9" stroke="black" stroke-width="0.27409523174560996"/>
<path d="M-0.5277485,6.711729 L6.877369,3.6844804 L6.3301353,4.9885263 L0.7762972,7.2589626 z" fill="#CC824A" fill-rule="nonzero" opacity="0.9" stroke="black" stroke-width="0.27409523174560996"/>
<path d="M50.55797,-24.046963 L42.55826,-23.978443 L43.54966,-24.98697 L49.54944,-25.03836 z" fill="#CC824A" fill-rule="nonzero" opacity="0.9" stroke="black" stroke-width="0.27409523174560996"/>
<path d="M19.877838,3.910708 L19.009388,11.86343 L18.123854,10.760784 L18.775192,4.7962418 z" fill="#CC824A" fill-rule="nonzero" opacity="0.9" stroke="black" stroke-width="0.27409523174560996"/>
<path d="M-15.757966,22.191572 L-16.342463,18.234507 L-14.363931,17.942259 L-13.22854,18.7854 L-12.790168,21.7532 z" fill="#CC824A" fill-rule="nonzero" opacity="0.9" stroke="black" stroke-width="0.27409523174560996"/>
<path d="M-48.194153,-6.671527 L-45.26144,-9.391675 L-44.581406,-8.658498 L-47.514114,-5.9383492 z" fill="#CC824A" fill-rule="nonzero" opacity="0.9" stroke="black" stroke-width="0.27409523174560996"/>
<path d="M-47.645153,-5.799369 L-44.647266,-8.447518 L-43.98523,-7.698047 L-46.983112,-5.0498977 z" fill="#CC824A" fill-rule="nonzero" opacity="0.9" stroke="black" stroke-width="0.27409523174560996"/>
<path d="M-2.207755,-13.624362 L-2.206832,-9.624362 L-3.206832,-9.624131 L-3.207755,-13.624131 z" fill="#CC824A" fill-rule="nonzero" opacity="0.9" stroke="black" stroke-width="0.27409523174560996"/>
<path d="M-10.600963,4.829377 L-10.597244,8.829375 L-11.597244,8.830305 L-11.600963,4.8303065 z" fill="#CC824A" fill-rule="nonzero" opacity="0.9" stroke="black" stroke-width="0.27409523174560996"/>
<path d="M-3.1720939,-7.425875 L-1.5601933,-11.086719 L-0.64498234,-10.6837435 L-2.256883,-7.0229 z" fill="#CC824A" fill-rule="nonzero" opacity="0.9" stroke="black" stroke-width="0.27409523174560996"/>
<path d="M-25.026041,-15.551915 L-21.037605,-15.85585 L-20.96162,-14.858742 L-24.950058,-14.554806 z" fill="#CC824A" fill-rule="nonzero" opacity="0.9" stroke="black" stroke-width="0.27409523174560996"/>
<path d="M9.782193,5.0417867 L5.959677,6.2200804 L5.665104,5.2644515 L9.487619,4.086158 z" fill="#CC824A" fill-rule="nonzero" opacity="0.9" stroke="black" stroke-width="0.27409523174560996"/>
<path d="M12.695132,18.401468 L16.694921,18.360456 L16.705175,19.360403 L12.705385,19.401417 z" fill="#CC824A" fill-rule="nonzero" opacity="0.9" stroke="black" stroke-width="0.27409523174560996"/>
<path d="M33.020695,-8.070404 L29.032358,-8.375635 L29.108665,-9.37272 L33.097004,-9.067489 z" fill="#CC824A" fill-rule="nonzero" opacity="0.9" stroke="black" stroke-width="0.27409523174560996"/>
<path d="M-31.69896,-1.5636903 L-31.696812,-5.5636897 L-30.696812,-5.563153 L-30.69896,-1.5631535 z" fill="#CC824A" fill-rule="nonzero" opacity="0.9" stroke="black" stroke-width="0.27409523174560996"/>
<path d="M23.94821,4.3300295 L20.088509,5.380125 L19.825983,4.4151998 L23.685686,3.365104 z" fill="#CC824A" fill-rule="nonzero" opacity="0.9" stroke="black" stroke-width="0.27409523174560996"/>
<path d="M-17.64651,25.188498 L-13.6608,24.850674 L-13.5763445,25.847101 L-17.562054,26.184925 z" fill="#CC824A" fill-rule="nonzero" opacity="0.9" stroke="black" stroke-width="0.27409523174560996"/>
<path d="M24.732695,-5.3457522 L28.56217,-4.1902776 L28.2733,-3.2329087 L24.443827,-4.3883834 z" fill="#CC824A" fill-rule="nonzero" opacity="0.9" stroke="black" stroke-width="0.27409523174560996"/>
<path d="M12.92448,20.620043 L16.735804,19.406038 L17.039307,20.35887 L13.227982,21.572874 z" fill="#CC824A" fill-rule="nonzero" opacity="0.9" stroke="black" stroke-width="0.27409523174560996"/>
<path d="M31.356623,3.798756 L31.008278,-0.18604738 L32.00448,-0.27313328 L32.35282,3.71167 z" fill="#CC824A" fill-rule="nonzero" opacity="0.9" stroke="black" stroke-width="0.27409523174560996"/>
<path d="M-37.572334,21.53718 L-36.476063,18.744656 L-35.545223,19.110079 L-36.64149,21.902603 z" fill="#CC824A" fill-rule="nonzero" opacity="0.9" stroke="black" stroke-width="0.27409523174560996"/>
<path d="M-22.57993,-11.990363 L-22.627676,-8.990744 L-23.62755,-9.0066595 L-23.579802,-12.006279 z" fill="#CC824A" fill-rule="nonzero" opacity="0.9" stroke="black" stroke-width="0.27409523174560996"/>
<path d="M-25.84846,10.284206 L-28.84845,10.29187 L-28.851006,9.291874 L-25.851015,9.28421 z" fill="#CC824A" fill-rule="nonzero" opacity="0.9" stroke="black" stroke-width="0.27409523174560996"/>
<path d="M-20.603924,4.1021194 L-20.789564,1.1078688 L-19.791481,1.0459884 L-19.60584,4.0402393 z" fill="#CC824A" fill-rule="nonzero" opacity="0.9" stroke="black" stroke-width="0.27409523174560996"/>
<path d="M-21.478094,9.896876 L-21.226223,6.907468 L-20.229753,6.991425 L-20.481625,9.980833 z" fill="#CC824A" fill-rule="nonzero" opacity="0.9" stroke="black" stroke-width="0.27409523174560996"/>
<path d="M32.74594,-1.4616548 L33.451405,1.4542197 L32.479446,1.6893735 L31.773985,-1.226501 z" fill="#CC824A" fill-rule="nonzero" opacity="0.9" stroke="black" stroke-width="0.27409523174560996"/>
<path d="M-15.260973,-4.6235547 L-12.267011,-4.8137875 L-12.203599,-3.8157997 L-15.197562,-3.6255672 z" fill="#CC824A" fill-rule="nonzero" opacity="0.9" stroke="black" stroke-width="0.27409523174560996"/>
<path d="M27.742937,9.381066 L30.737963,9.553724 L30.68041,10.552067 L27.685383,10.379409 z" fill="#CC824A" fill-rule="nonzero" opacity="0.9" stroke="black" stroke-width="0.27409523174560996"/>
<path d="M-30.554003,0.2664232 L-33.21715,-1.1147473 L-32.756763,-2.002464 L-30.093613,-0.6212935 z" fill="#CC824A" fill-rule="nonzero" opacity="0.9" stroke="black" stroke-width="0.27409523174560996"/>
<path d="M33.25523,-6.801843 L30.289795,-7.2559443 L30.441162,-8.244422 L33.406597,-7.790321 z" fill="#CC824A" fill-rule="nonzero" opacity="0.9" stroke="black" stroke-width="0.27409523174560996"/>
<path d="M-40.937965,19.567648 L-42.770718,21.94273 L-43.562412,21.331812 L-41.72966,18.95673 z" fill="#CC824A" fill-rule="nonzero" opacity="0.9" stroke="black" stroke-width="0.27409523174560996"/>
<path d="M11.031527,3.7201574 L10.537101,6.679134 L9.550776,6.5143256 L10.045201,3.5553486 z" fill="#CC824A" fill-rule="nonzero" opacity="0.9" stroke="black" stroke-width="0.27409523174560996"/>
<path d="M10.18554,-15.121795 L13.181241,-15.282334 L13.234755,-14.283768 L10.239054,-14.123227 z" fill="#CC824A" fill-rule="nonzero" opacity="0.9" stroke="black" stroke-width="0.27409523174560996"/>
<path d="M29.792059,10.756221 L32.72188,10.111134 L32.936913,11.087741 L30.007088,11.732828 z" fill="#CC824A" fill-rule="nonzero" opacity="0.9" stroke="black" stroke-width="0.27409523174560996"/>
<path d="M45.37191,-23.258137 L43.270508,-21.117085 L42.556824,-21.817553 L44.658226,-23.958605 z" fill="#CC824A" fill-rule="nonzero" opacity="0.9" stroke="black" stroke-width="0.27409523174560996"/>
</g>
<g/>
<g/>
<g/>
</svg>