<svg viewBox="-5405.923514897881 -4660.388732423193 9853.2 9007.95" xmlns="http://www.w3.org/2000/svg">
<g>
<path d="M-4612.3237,675.08624 L-4948.3237,696.08624 L-5171.3237,165.08627 L-4834.3237,-962.91376 L-4201.3237,-1360.9137 L-3997.3235,-2218.9138 L-3537.3235,-2242.9138 L-3354.3235,-2570.9138 L-3105.3235,-2391.9138 L-2860.3235,-2345.9138 L-3198.3235,-2811.9138 L-2978.3235,-2991.9138 L-2403.3235,-3077.9138 L-2295.3235,-2975.9138 L-2268.3235,-3126.9138 L-2055.3235,-3231.9138 L-1835.3235,-3118.9138 L-1700.3235,-3310.9138 L-1564.3235,-3190.9138 L-768.3235,-3512.9138 L-382.84506,-3422.771 L87.67648,-3634.9138 L713.6765,-4094.9138 L1218.6765,-4097.9136 L2135.6765,-4445.9136 L2620.6582,-4236.55 L2964.6765,-4438.9136 L3354.6765,-4303.9136 L3452.6765,-4007.9138 L3607.6765,-3721.9138 L3557.6765,-3530.9138 L3718.6765,-3234.9138 L3746.6765,-2892.9138 L3619.6765,-2523.9138 L3670.6765,-2204.9138 L3546.6765,-1968.9137 L3540.6765,-742.91376 L3950.6765,385.08627 L3912.6765,1291.0863 L4188.6763,2658.0862 L4212.6763,3202.0862 L3933.6765,3341.0862 L3755.6765,3570.0862 L3400.6765,3445.0862 L2696.6765,3433.0862 L2237.6765,3577.0862 L1958.6765,3539.0862 L1484.6765,3636.0862 L1221.6765,3933.0862 L881.6765,3868.0862 L1.6764851,3894.0862 L-607.3235,3648.0862 L-1039.3235,3821.0862 L-1404.3235,4079.0862 L-1726.3235,4133.0864 L-1744.3235,3880.0862 L-2004.3235,3719.0862 L-2184.3235,3720.0862 L-2164.3235,3531.0862 L-2406.3235,3705.0862 L-2646.3235,3637.0862 L-2891.3235,3211.0862 L-3388.3235,2957.0862 L-3346.3235,2784.0862 L-3471.3235,2647.0862 L-3474.3235,2247.0862 L-3562.3235,1989.0863 L-3385.3235,1600.0863 L-3439.3235,1376.0863 L-3742.3235,1217.0863 L-4459.3237,1193.0863 L-4676.3237,1000.08624 L-4797.3237,705.08624 z" fill="#CC824A" stroke="black" stroke-width="36.031800000000004"/>
<path d="M-3393.3235,-1395.9137 L-3379.3235,-1344.9137 L-3442.3235,-1290.9137 L-3506.3235,-1357.9137 L-3442.3235,-1417.9137 z" fill="#2D2D2D" stroke="black" stroke-width="18.015900000000002"/>
<path d="M3546.6765,2366.0862 L3487.6765,2413.0862 L3444.6765,2356.0862 L3495.6765,2311.0862 z" fill="#2D2D2D" stroke="black" stroke-width="18.015900000000002"/>
<path d="M3348.6765,2405.0862 L3295.6765,2448.0862 L3246.6765,2395.0862 L3297.6765,2346.0862 z" fill="#2D2D2D" stroke="black" stroke-width="18.015900000000002"/>
<path d="M338.67648,-3591.9138 L513.6765,-3441.9138 L768.6765,-3318.9138 L926.6765,-3173.9138 L1741.6765,-3067.9138 L2022.6765,-2834.9138 L2032.6765,-2534.9138 L1888.6765,-2328.9138 L1124.6765,-2114.9138 L824.6765,-2118.9138 L210.67648,-2245.9138 L-161.32352,-2575.9138 L-440.32352,-2743.9138 L-716.3235,-2818.9138 L-1364.3235,-2636.9138 L-1616.7693,-2824.4785 L-1634.3235,-3176.9138 L-1476.3235,-3143.9138 L-1281.3235,-3178.9138 L-567.3235,-3463.9138 L-399.32352,-3377.9138 L-231.32352,-3381.9138 L10.676485,-3488.9138 L285.67648,-3693.9138 z" fill="#2D2D2D" stroke="black" stroke-width="18.015900000000002"/>
<path d="M-4499.3237,-278.91373 L-4464.3237,-200.91373 L-4502.3237,-224.91373 z" fill="#2D2D2D" stroke="black" stroke-width="18.015900000000002"/>
<path d="M-4466.3237,59.08627 L-4429.3237,94.086266 L-4466.3237,139.08627 L-4516.3237,80.086266 z" fill="#2D2D2D" stroke="black" stroke-width="18.015900000000002"/>
<path d="M-1208.3235,3835.0862 L-1425.3235,3553.0862 L-1224.3235,3443.0862 L-1204.3235,3134.0862 L-1051.3235,2930.0862 L-840.3235,2976.0862 L-794.3235,2810.0862 L88.67648,2761.0862 L984.6765,2591.0862 L1915.6765,2592.0862 L2069.6765,3525.0862 L-1144.3235,3662.0862 z" fill="#2D2D2D" stroke="black" stroke-width="18.015900000000002"/>
</g>
<g>
<g>
<path d="M-2101.1064,1797.6045 L-2489.149,1984.4282 L-3524.1035,1321.4697 L-4664.0376,424.8015 L-4159.4834,-276.79877 L-3769.2458,-1022.407 L-2571.2598,-380.58572 L-1012.7448,203.826 L618.79047,528.2973 L1975.1528,614.24005 L1913.826,1453.5588 L1972.8441,2315.7275 L531.5016,2476.9595 L-697.45044,2494.9043 L-793.90875,2267.7813 L-928.76056,2131.6196 L-1497.1902,1904.1603 z" fill="#FFC879" fill-rule="nonzero" opacity="0.9" stroke="black" stroke-width="18.015900000000002"/>
</g>
<g>
<path d="M1862.4662,-1152.7058 L-4037.658,-1458.034 L-4011.635,-2158.6536 L1888.489,-1853.3253 z" fill="#FFC879" fill-rule="nonzero" opacity="0.9" stroke="black" stroke-width="18.015900000000002"/>
</g>
<g>
<path d="M2950.6494,2373.6816 L2862.463,2561.9814 L1992.11,2562.0093 L2039.3246,-3331.8015 L2900.38,-3316.0483 L2976.4453,-3218.291 L2968.6868,-377.26202 z" fill="#FFC879" fill-rule="nonzero" opacity="0.9" stroke="black" stroke-width="18.015900000000002"/>
</g>
<g>
<path d="M-2840.332,-1394.3278 L318.16467,-874.42505 L187.75456,-76.00459 L-2973.7024,-596.39453 z" fill="#FF643C" fill-rule="nonzero" opacity="0.9" stroke="black" stroke-width="18.015900000000002"/>
</g>
<g>
<path d="M2963.975,839.1887 L2970.9978,-797.33704 L3340.4644,-856.0862 L3407.1445,-607.7563 L3563.731,-388.66556 L3569.706,1779.8716 L2954.3008,1855.5388 z" fill="#FFC879" fill-rule="nonzero" opacity="0.9" stroke="black" stroke-width="18.015900000000002"/>
</g>
<g>
<path d="M-3335.739,1920.1884 L-1178.4991,2141.3328 L-976.029,2318.888 L-735.54205,2409.8826 L-830.66583,2771.6953 L-3472.1035,2525.0469 z" fill="#FFC879" fill-rule="nonzero" opacity="0.9" stroke="black" stroke-width="18.015900000000002"/>
</g>
<g>
<path d="M682.2092,-4069.3975 L2971.0078,-4179.2256 L2797.2593,-3363.9731 L707.28644,-3348.656 z" fill="#FF643C" fill-rule="nonzero" opacity="0.9" stroke="black" stroke-width="18.015900000000002"/>
</g>
<g>
<path d="M4045.9468,2422.6067 L4128.69,3117.699 L2043.4127,3365.9292 L1960.6694,2670.8367 z" fill="#FF643C" fill-rule="nonzero" opacity="0.9" stroke="black" stroke-width="18.015900000000002"/>
</g>
<g>
<path d="M-759.92194,-2633.4553 L-759.74603,-2133.4553 L-2859.7458,-2132.7166 L-2859.9219,-2632.7166 z" fill="#FF643C" fill-rule="nonzero" opacity="0.9" stroke="black" stroke-width="18.015900000000002"/>
</g>
<g>
<path d="M1375.9063,-1025.1964 L307.26,464.10046 L-65.41957,276.1033 L1004.7042,-1194.8138 z" fill="#FFC879" fill-rule="nonzero" opacity="0.9" stroke="black" stroke-width="18.015900000000002"/>
</g>
<g>
<path d="M3384.1145,-1496.4204 L2971.9587,-1562.4563 L2978.6704,-3395.477 L3378.8586,-3315.413 z" fill="#FFC879" fill-rule="nonzero" opacity="0.9" stroke="black" stroke-width="18.015900000000002"/>
</g>
<g>
<path d="M958.691,549.511 L973.85284,-462.7356 L1880.2002,-438.33453 L1879.0491,574.7482 z" fill="#FFC879" fill-rule="nonzero" opacity="0.9" stroke="black" stroke-width="18.015900000000002"/>
</g>
</g>
<g>
<path d="M2782.6765,2721.0862 L2931.6765,3369.0862 L2238.6765,3411.0862 L2108.6765,2812.0862 z" fill="#FF0000" fill-opacity="0.50" stroke="#7F0000" stroke-dasharray="90.07950000000001" stroke-linecap="round" stroke-linejoin="round" stroke-opacity="0.5" stroke-width="36.031800000000004"/>
<path d="M-2436.3235,-2708.9138 L-2208.3235,-2271.9138 L-2770.3235,-2155.9138 L-2963.3235,-2785.9138 z" fill="#FF0000" fill-opacity="0.50" stroke="#7F0000" stroke-dasharray="90.07950000000001" stroke-linecap="round" stroke-linejoin="round" stroke-opacity="0.5" stroke-width="36.031800000000004"/>
<path d="M-1452.3235,3716.0862 L-2176.3235,3518.0862 L-2087.3235,2917.0862 L-1383.3235,2882.0862 z" fill="#FF0000" fill-opacity="0.50" stroke="#7F0000" stroke-dasharray="90.07950000000001" stroke-linecap="round" stroke-linejoin="round" stroke-opacity="0.5" stroke-width="36.031800000000004"/>
<path d="M3013.6765,-3449.9138 L2122.6765,-3363.9138 L2053.6765,-4236.9136 L2163.6765,-4448.9136 L2233.6765,-4425.9136 L2363.6765,-4299.9136 L2501.6765,-4287.9136 L2743.6765,-4308.9136 L2964.6765,-4438.9136 z" fill="#FF0000" fill-opacity="0.50" stroke="#7F0000" stroke-dasharray="90.07950000000001" stroke-linecap="round" stroke-linejoin="round" stroke-opacity="0.5" stroke-width="36.031800000000004"/>
</g>
<g/>
<g/>
</svg>