<svg viewBox="-170.12924103593147 -143.80000000000013 7145.428123509115 6039.6" xmlns="http://www.w3.org/2000/svg">
<g>
<path d="M0,0 L6805.1694,0 L6805.1694,5752 L0,5752 z" fill="#CC824A" stroke="black" stroke-width="24.1584"/>
</g>
<g>
<g>
<path d="M647.67163,435.67438 L332.67163,358.67438 L111.825485,313.10294 L0.026475789,261.19626 L274.67163,236.67436 L398.67163,220.67436 L591.67163,177.67436 L729.67163,119.67436 L936.67163,0.67436445 L1070.6716,31.674364 L1284.5435,76.82509 L1459.1838,135.63255 L1572.6716,189.67436 L1699.6716,258.67438 L1921.6716,362.67438 L1941.4141,613.4035 L1538.6512,676.00916 L1330.6716,690.6744 L1164.198,690.6744 L987.67163,664.6744 L807.62445,624.85626 z" fill="#FFC879" fill-rule="nonzero" opacity="0.9" stroke="black" stroke-width="12.0792"/>
</g>
<g>
<path d="M1294.1074,887.3403 L1609.1074,964.3403 L1829.9536,1009.9117 L1941.7526,1061.8184 L1667.1074,1086.3402 L1543.1074,1102.3402 L1350.1074,1145.3402 L1212.1074,1203.3402 L1005.1075,1322.3402 L871.1075,1291.3402 L657.2356,1246.1896 L482.59528,1187.3821 L369.10745,1133.3402 L242.10745,1064.3402 L20.10746,960.3403 L0.3650064,709.6111 L403.1278,647.0055 L611.1075,632.3403 L777.5811,632.3403 L954.1075,658.3403 L1134.1547,698.1584 z" fill="#FFC879" fill-rule="nonzero" opacity="0.9" stroke="black" stroke-width="12.0792"/>
</g>
<g>
<path d="M1294.1423,1542.5121 L1609.1423,1619.5121 L1829.9885,1665.0835 L1941.7875,1716.9901 L1667.1423,1741.5121 L1543.1423,1757.5121 L1350.1423,1800.5121 L1212.1423,1858.5121 L1005.1424,1977.5121 L871.1424,1946.5121 L657.2705,1901.3613 L482.6302,1842.5538 L369.14236,1788.5121 L242.14238,1719.5121 L20.142374,1615.5121 L0.39992055,1364.783 L403.16272,1302.1772 L611.1424,1287.5121 L777.616,1287.5121 L954.1424,1313.5121 L1134.1896,1353.3302 z" fill="#FFC879" fill-rule="nonzero" opacity="0.9" stroke="black" stroke-width="12.0792"/>
</g>
<g>
<path d="M1293.8188,2200.0547 L1608.8188,2277.0547 L1829.665,2322.6262 L1941.464,2374.533 L1666.8188,2399.0547 L1542.8188,2415.0547 L1349.8188,2458.0547 L1211.8188,2516.0547 L1004.81885,2635.0547 L870.81885,2604.0547 L656.947,2558.904 L482.30664,2500.0967 L368.81885,2446.0547 L241.81885,2377.0547 L19.818848,2273.0547 L0.076394536,2022.3256 L402.83917,1959.72 L610.81885,1945.0548 L777.29254,1945.0548 L953.81885,1971.0548 L1133.866,2010.8729 z" fill="#FFC879" fill-rule="nonzero" opacity="0.9" stroke="black" stroke-width="12.0792"/>
</g>
<g>
<path d="M647.7234,3054.5815 L332.72342,2977.5815 L111.877266,2932.0103 L0.07825513,2880.1035 L274.72342,2855.5815 L398.72342,2839.5815 L591.7234,2796.5815 L729.7234,2738.5815 L936.7234,2619.5815 L1070.7234,2650.5815 L1284.5952,2695.7324 L1459.2356,2754.5398 L1572.7234,2808.5815 L1699.7234,2877.5815 L1921.7234,2981.5815 L1941.4658,3232.3108 L1538.7031,3294.9163 L1330.7234,3309.5815 L1164.2498,3309.5815 L987.7234,3283.5815 L807.6763,3243.7634 z" fill="#FFC879" fill-rule="nonzero" opacity="0.9" stroke="black" stroke-width="12.0792"/>
</g>
<g>
<path d="M1293.7771,3507.173 L1608.7771,3584.173 L1829.6232,3629.7446 L1941.4222,3681.6511 L1666.7771,3706.173 L1542.7771,3722.173 L1349.7771,3765.173 L1211.7771,3823.173 L1004.77704,3942.173 L870.77704,3911.173 L656.9052,3866.0225 L482.26486,3807.2148 L368.77707,3753.173 L241.77707,3684.173 L19.777067,3580.173 L0.034615193,3329.4438 L402.7974,3266.8384 L610.77704,3252.173 L777.25073,3252.173 L953.77704,3278.173 L1133.8242,3317.9912 z" fill="#FFC879" fill-rule="nonzero" opacity="0.9" stroke="black" stroke-width="12.0792"/>
</g>
<g>
<path d="M497.53802,3824.8179 L626.1491,3903.3384 L729.1491,3945.3384 L832.1491,3960.3384 L995.1491,3944.3384 L1112.1492,3921.3384 L1312.1492,3876.3384 L1351.1492,4044.3384 L997.75696,4124.4756 L735.1491,4182.3384 L610.1491,4262.3384 L574.1491,4452.3384 L574.1491,4614.3384 L596.1491,4767.3384 L855.1491,4909.3384 L1353.4221,5018.1313 L1315.1492,5187.3384 L997.1491,5120.3384 L834.1491,5105.3384 L731.1491,5120.3384 L629.1491,5163.3384 L502.5609,5240.624 L315.72745,5321.2573 L3.1491337,5251.3384 L52.14913,5042.3384 L74.14913,4895.3384 L81.14913,4674.3384 L76.14913,4246.3384 L65.14913,4110.3384 L0.14913361,3817.3384 L306.30164,3744.2974 z" fill="#FFC879" fill-rule="nonzero" opacity="0.9" stroke="black" stroke-width="12.0792"/>
</g>
<g>
<path d="M1430.8958,5641.3267 L1302.2845,5562.806 L1199.2845,5520.806 L1096.2845,5505.806 L933.2846,5521.806 L816.2846,5544.806 L616.2846,5589.806 L577.2846,5421.806 L930.67676,5341.669 L1193.2845,5283.806 L1318.2845,5203.806 L1354.2845,5013.806 L1354.2845,4851.806 L1332.2845,4698.806 L1073.2845,4556.806 L575.01166,4448.0127 L613.2846,4278.806 L931.2846,4345.806 L1094.2845,4360.806 L1197.2845,4345.806 L1299.2845,4302.806 L1425.8728,4225.5205 L1612.7063,4144.887 L1925.2845,4214.806 L1876.2845,4423.806 L1854.2845,4570.806 L1847.2845,4791.806 L1852.2845,5219.806 L1863.2845,5355.806 L1928.2845,5648.806 L1622.1321,5721.847 z" fill="#FFC879" fill-rule="nonzero" opacity="0.9" stroke="black" stroke-width="12.0792"/>
</g>
<g>
<path d="M2175.5103,2077.836 L2046.899,1999.3154 L1943.899,1957.3154 L1840.899,1942.3154 L1677.899,1958.3154 L1560.899,1981.3154 L1360.899,2026.3154 L1321.899,1858.3154 L1675.2913,1778.1782 L1937.899,1720.3154 L2062.8992,1640.3154 L2098.8992,1450.3154 L2098.8992,1288.3154 L2076.8992,1135.3154 L1817.899,993.3154 L1319.6261,884.5222 L1357.899,715.3154 L1675.899,782.3154 L1838.899,797.3154 L1941.899,782.3154 L2043.899,739.3154 L2170.4873,662.02997 L2357.3208,581.3966 L2669.8992,651.3154 L2620.8992,860.3154 L2598.8992,1007.3154 L2591.8992,1228.3154 L2596.8992,1656.3154 L2607.8992,1792.3154 L2672.8992,2085.3154 L2366.7466,2158.3564 z" fill="#FFC879" fill-rule="nonzero" opacity="0.9" stroke="black" stroke-width="12.0792"/>
</g>
<g>
<path d="M3459.7285,2324.163 L3464.7285,2645.163 L3458.7285,2966.163 L3308.7285,2984.163 L2907.6045,3099.3003 L2601.7285,3161.163 L2471.7285,3006.163 L2384.7285,2944.163 L2248.7285,2877.163 L2140.7285,2851.163 L1978.7284,2850.163 L1862.7284,2864.163 L1722.7284,2888.163 L1740.7284,2764.163 L1751.7284,2641.163 L1741.7284,2518.163 L1723.7284,2394.163 L1863.7284,2419.163 L1979.7284,2433.163 L2141.7285,2433.163 L2249.7285,2407.163 L2385.7285,2341.163 L2473.7285,2279.163 L2603.7285,2125.163 L2910.6204,2188.955 L3310.7285,2305.163 z" fill="#FFC879" fill-rule="nonzero" opacity="0.9" stroke="black" stroke-width="12.0792"/>
</g>
<g>
<path d="M3542.1545,3623.8823 L3547.1545,3944.8823 L3541.1545,4265.8823 L3391.1545,4283.8823 L2990.0305,4399.02 L2684.1545,4460.8823 L2554.1545,4305.8823 L2467.1545,4243.8823 L2331.1545,4176.8823 L2223.1545,4150.8823 L2061.1545,4149.8823 L1945.1545,4163.8823 L1805.1545,4187.8823 L1823.1545,4063.8823 L1834.1545,3940.8823 L1824.1545,3817.8823 L1806.1545,3693.8823 L1946.1545,3718.8823 L2062.1545,3732.8823 L2224.1545,3732.8823 L2332.1545,3706.8823 L2468.1545,3640.8823 L2556.1545,3578.8823 L2686.1545,3424.8823 L2993.0464,3488.6746 L3393.1545,3604.8823 z" fill="#FFC879" fill-rule="nonzero" opacity="0.9" stroke="black" stroke-width="12.0792"/>
</g>
<g>
<path d="M3589.5383,4652.967 L3594.5383,4973.967 L3588.5383,5294.967 L3438.5383,5312.967 L3037.4146,5428.1045 L2731.5383,5489.967 L2601.5383,5334.967 L2514.5383,5272.967 L2378.5383,5205.967 L2270.5383,5179.967 L2108.5383,5178.967 L1992.5383,5192.967 L1852.5383,5216.967 L1870.5383,5092.967 L1881.5383,4969.967 L1871.5383,4846.967 L1853.5383,4722.967 L1993.5383,4747.967 L2109.5383,4761.967 L2271.5383,4761.967 L2379.5383,4735.967 L2515.5383,4669.967 L2603.5383,4607.967 L2733.5383,4453.967 L3040.4304,4517.7593 L3440.5383,4633.967 z" fill="#FFC879" fill-rule="nonzero" opacity="0.9" stroke="black" stroke-width="12.0792"/>
</g>
<g>
<path d="M2758.768,941.7533 L2792.728,798.8383 L2835.768,673.7533 L2847.768,553.7533 L1932.7682,502.75333 L1934.7682,343.75333 L2797.768,334.75333 L2927.768,291.75333 L3005.2617,1.1524574 L3129.768,17.753315 L3112.768,215.75331 L3106.768,331.75333 L3108.768,529.7533 L3118.768,677.7533 L3140.768,847.7533 L3247.4595,1173.8661 L3110.768,995.7533 L2975.768,941.7533 z" fill="#FFC879" fill-rule="nonzero" opacity="0.9" stroke="black" stroke-width="12.0792"/>
</g>
<g>
<path d="M3093.2546,1202.5024 L3059.2947,1345.4174 L3016.2546,1470.5024 L3004.2546,1590.5024 L3919.2546,1641.5024 L3917.2546,1800.5024 L3054.2546,1809.5024 L2924.2546,1852.5024 L2846.761,2143.1033 L2722.2546,2126.5024 L2739.2546,1928.5024 L2745.2546,1812.5024 L2743.2546,1614.5024 L2733.2546,1466.5024 L2711.2546,1296.5024 L2604.5635,970.3896 L2741.2546,1148.5024 L2876.2546,1202.5024 z" fill="#FFC879" fill-rule="nonzero" opacity="0.9" stroke="black" stroke-width="12.0792"/>
</g>
<g>
<path d="M3544.0283,3739.4941 L3577.9883,3596.579 L3621.0283,3471.4941 L3633.0283,3351.4941 L2718.0283,3300.4941 L2720.0283,3141.4941 L3583.0283,3132.4941 L3713.0283,3089.4941 L3790.522,2798.8933 L3915.0283,2815.4941 L3898.0283,3013.4941 L3892.0283,3129.4941 L3894.0283,3327.4941 L3904.0283,3475.4941 L3926.0283,3645.4941 L4032.7195,3971.607 L3896.0283,3793.4941 L3761.0283,3739.4941 z" fill="#FFC879" fill-rule="nonzero" opacity="0.9" stroke="black" stroke-width="12.0792"/>
</g>
<g>
<path d="M3703.0872,2619.8826 L3737.047,2476.9675 L3780.0872,2351.8826 L3792.0872,2231.8826 L2877.0872,2180.8826 L2879.0872,2021.8826 L3742.0872,2012.8826 L3872.0872,1969.8826 L3949.5806,1679.2816 L4074.0872,1695.8826 L4057.0872,1893.8826 L4051.0872,2009.8826 L4053.0872,2207.8826 L4063.0872,2355.8826 L4085.0872,2525.8826 L4191.7783,2851.9954 L4055.0872,2673.8826 L3920.0872,2619.8826 z" fill="#FFC879" fill-rule="nonzero" opacity="0.9" stroke="black" stroke-width="12.0792"/>
</g>
<g>
<path d="M3934.6333,942.0201 L3968.5933,799.1051 L4011.6333,674.0201 L4023.6333,554.0201 L3108.6333,503.02008 L3110.6333,344.02008 L3973.6333,335.02008 L4103.6333,292.02008 L4181.127,1.419229 L4305.6333,18.020088 L4288.6333,216.02008 L4282.6333,332.02008 L4284.6333,530.0201 L4294.6333,678.0201 L4316.6333,848.0201 L4423.324,1174.1329 L4286.6333,996.0201 L4151.6333,942.0201 z" fill="#FFC879" fill-rule="nonzero" opacity="0.9" stroke="black" stroke-width="12.0792"/>
</g>
<g>
<path d="M4194.555,2049.432 L4228.515,1906.5168 L4271.555,1781.4319 L4283.555,1661.4319 L3368.5552,1610.4319 L3370.5552,1451.4319 L4233.555,1442.4319 L4363.555,1399.4319 L4441.049,1108.831 L4565.555,1125.4319 L4548.555,1323.4319 L4542.555,1439.4319 L4544.555,1637.4319 L4554.555,1785.4319 L4576.555,1955.4319 L4683.2466,2281.5447 L4546.555,2103.432 L4411.555,2049.432 z" fill="#FFC879" fill-rule="nonzero" opacity="0.9" stroke="black" stroke-width="12.0792"/>
</g>
<g>
<path d="M4822.006,4719.409 L4692.206,4748.2534 L4515.1216,4689.225 L4278.678,4579.826 L4085.0059,4474.187 L3967.0059,4422.187 L3863.0059,4399.187 L3751.0059,4406.187 L3547.0059,4457.187 L3572.0059,4213.187 L3547.0059,3967.1868 L3751.0059,4018.1868 L3863.0059,4025.1868 L3967.0059,4002.1868 L4085.0059,3950.1868 L4278.678,3844.5474 L4515.1216,3735.1484 L4692.206,3676.12 L4822.006,3704.9646 z" fill="#FFC879" fill-rule="nonzero" opacity="0.9" stroke="black" stroke-width="12.0792"/>
</g>
<g>
<path d="M3594.628,4446.412 L3724.4277,4417.5674 L3901.5125,4476.5957 L4137.9556,4585.9946 L4331.628,4691.6343 L4449.628,4743.6343 L4553.628,4766.6343 L4665.628,4759.6343 L4869.628,4708.6343 L4844.628,4952.6343 L4869.628,5198.6343 L4665.628,5147.6343 L4553.628,5140.6343 L4449.628,5163.6343 L4331.628,5215.6343 L4137.9556,5321.2734 L3901.5125,5430.6724 L3724.4277,5489.7007 L3594.628,5460.8564 z" fill="#FFC879" fill-rule="nonzero" opacity="0.9" stroke="black" stroke-width="12.0792"/>
</g>
<g>
<path d="M5188.4717,3549.9377 L5058.6714,3578.7822 L4881.587,3519.754 L4645.1436,3410.355 L4451.4717,3304.7156 L4333.4717,3252.7156 L4229.4717,3229.7156 L4117.4717,3236.7156 L3913.4714,3287.7156 L3938.4714,3043.7156 L3913.4714,2797.7156 L4117.4717,2848.7156 L4229.4717,2855.7156 L4333.4717,2832.7156 L4451.4717,2780.7156 L4645.1436,2675.0762 L4881.587,2565.677 L5058.6714,2506.649 L5188.4717,2535.4934 z" fill="#FFC879" fill-rule="nonzero" opacity="0.9" stroke="black" stroke-width="12.0792"/>
</g>
<g>
<path d="M5377.6167,620.12054 L5381.6167,743.12054 L5385.6167,911.12054 L5394.6167,1074.1205 L5417.6167,1240.1205 L5258.6167,1239.1205 L5131.6167,1158.1205 L5025.6167,1121.1205 L4885.6167,1078.1205 L4691.4526,1025.5083 L4464.6167,922.12054 L4316.6167,844.12054 L4340.6167,618.12054 L4316.6167,396.1205 L4464.6167,318.1205 L4691.4526,214.73273 L4885.6167,162.12051 L5025.6167,119.120514 L5131.6167,82.120514 L5258.6167,1.1205156 L5417.6167,0.12051561 L5394.6167,166.12051 L5385.6167,329.1205 L5381.6167,497.1205 z" fill="#FFC879" fill-rule="nonzero" opacity="0.9" stroke="black" stroke-width="12.0792"/>
</g>
<g>
<path d="M5655.522,1784.1704 L5659.522,1907.1704 L5663.522,2075.1704 L5672.522,2238.1704 L5695.522,2404.1704 L5536.522,2403.1704 L5409.522,2322.1704 L5303.522,2285.1704 L5163.522,2242.1704 L4969.3574,2189.558 L4742.522,2086.1704 L4594.522,2008.1704 L4618.522,1782.1704 L4594.522,1560.1704 L4742.522,1482.1704 L4969.3574,1378.7826 L5163.522,1326.1704 L5303.522,1283.1704 L5409.522,1246.1704 L5536.522,1165.1704 L5695.522,1164.1704 L5672.522,1330.1704 L5663.522,1493.1704 L5659.522,1661.1704 z" fill="#FFC879" fill-rule="nonzero" opacity="0.9" stroke="black" stroke-width="12.0792"/>
</g>
<g>
<path d="M5883.1045,3951.85 L5887.1045,4074.85 L5891.1045,4242.85 L5900.1045,4405.85 L5923.1045,4571.85 L5764.1045,4570.85 L5637.1045,4489.85 L5531.1045,4452.85 L5391.1045,4409.85 L5196.9404,4357.238 L4970.1045,4253.85 L4822.1045,4175.85 L4846.1045,3949.85 L4822.1045,3727.85 L4970.1045,3649.85 L5196.9404,3546.4622 L5391.1045,3493.85 L5531.1045,3450.85 L5637.1045,3413.85 L5764.1045,3332.85 L5923.1045,3331.85 L5900.1045,3497.85 L5891.1045,3660.85 L5887.1045,3828.85 z" fill="#FFC879" fill-rule="nonzero" opacity="0.9" stroke="black" stroke-width="12.0792"/>
</g>
<g>
<path d="M2824.857,30.246809 L2816.857,202.24681 L2515.857,196.24681 L2340.857,195.24681 L2208.857,197.24681 L2106.857,202.24681 L1948.8569,224.24681 L1793.8569,278.2468 L1473.402,141.34361 L1615.8569,87.24681 L1775.8864,37.068108 L1915.8569,14.246809 L2092.343,0.014058971 L2313.857,4.2468085 L2611.857,16.246809 z" fill="#FFC879" fill-rule="nonzero" opacity="0.9" stroke="black" stroke-width="12.0792"/>
</g>
<g>
<path d="M1272.7778,3482.2993 L1280.7778,3310.2993 L1581.7778,3316.2993 L1756.7778,3317.2993 L1888.7778,3315.2993 L1990.7778,3310.2993 L2148.7778,3288.2993 L2303.7778,3234.2993 L2624.2327,3371.2026 L2481.7778,3425.2993 L2321.7485,3475.478 L2181.7778,3498.2993 L2005.2917,3512.532 L1783.7778,3508.2993 L1485.7778,3496.2993 z" fill="#FFC879" fill-rule="nonzero" opacity="0.9" stroke="black" stroke-width="12.0792"/>
</g>
<g>
<path d="M1926.2806,5692.9033 L1934.2806,5520.9033 L2235.2805,5526.9033 L2410.2805,5527.9033 L2542.2805,5525.9033 L2644.2805,5520.9033 L2802.2805,5498.9033 L2957.2805,5444.9033 L3277.7356,5581.806 L3135.2805,5635.9033 L2975.2512,5686.082 L2835.2805,5708.9033 L2658.7944,5723.1357 L2437.2805,5718.9033 L2139.2805,5706.9033 z" fill="#FFC879" fill-rule="nonzero" opacity="0.9" stroke="black" stroke-width="12.0792"/>
</g>
<g>
<path d="M3274.584,5657.2324 L3282.584,5485.2324 L3583.584,5491.2324 L3758.584,5492.2324 L3890.584,5490.2324 L3992.584,5485.2324 L4150.584,5463.2324 L4305.584,5409.2324 L4626.039,5546.1353 L4483.584,5600.2324 L4323.5547,5650.411 L4183.584,5673.2324 L4007.098,5687.465 L3785.584,5683.2324 L3487.584,5671.2324 z" fill="#FFC879" fill-rule="nonzero" opacity="0.9" stroke="black" stroke-width="12.0792"/>
</g>
<g>
<path d="M5491.674,5227.461 L5483.674,5399.461 L5182.674,5393.461 L5007.674,5392.461 L4875.674,5394.461 L4773.674,5399.461 L4615.674,5421.461 L4460.674,5475.461 L4140.2188,5338.558 L4282.674,5284.461 L4442.703,5234.282 L4582.674,5211.461 L4759.1597,5197.2285 L4980.674,5201.461 L5278.674,5213.461 z" fill="#FFC879" fill-rule="nonzero" opacity="0.9" stroke="black" stroke-width="12.0792"/>
</g>
<g>
<path d="M5797.4307,5503.74 L5789.4307,5675.74 L5488.4307,5669.74 L5313.4307,5668.74 L5181.4307,5670.74 L5079.4307,5675.74 L4921.4307,5697.74 L4766.4307,5751.74 L4445.9756,5614.8374 L4588.4307,5560.74 L4748.46,5510.5615 L4888.4307,5487.74 L5064.9165,5473.508 L5286.4307,5477.74 L5584.4307,5489.74 z" fill="#FFC879" fill-rule="nonzero" opacity="0.9" stroke="black" stroke-width="12.0792"/>
</g>
<g>
<path d="M3302.2708,599.4876 L3484.2693,804.6819 L3576.2693,910.6819 L3718.2693,978.6819 L4264.269,987.6819 L4260.269,1147.6819 L3672.2693,1164.6819 L3575.2693,1263.6819 L3396.2693,1312.6819 L3286.961,1097.8782 L3181.4797,841.9889 L3117.2693,646.6819 z" fill="#FFC879" fill-rule="nonzero" opacity="0.9" stroke="black" stroke-width="12.0792"/>
</g>
<g>
<path d="M5007.253,4271.461 L5189.2515,4476.6553 L5281.2515,4582.6553 L5423.2515,4650.6553 L5969.2515,4659.6553 L5965.2515,4819.6553 L5377.2515,4836.6553 L5280.2515,4935.6553 L5101.2515,4984.6553 L4991.9434,4769.8516 L4886.462,4513.9624 L4822.2515,4318.6553 z" fill="#FFC879" fill-rule="nonzero" opacity="0.9" stroke="black" stroke-width="12.0792"/>
</g>
<g>
<path d="M5580.2524,115.803116 L5762.251,320.9974 L5854.251,426.9974 L5996.251,494.9974 L6542.251,503.9974 L6538.251,663.9974 L5950.251,680.9974 L5853.251,779.9974 L5674.251,828.9974 L5564.9424,614.19366 L5459.4614,358.3044 L5395.251,162.9974 z" fill="#FFC879" fill-rule="nonzero" opacity="0.9" stroke="black" stroke-width="12.0792"/>
</g>
<g>
<path d="M5307.428,2288.0586 L5489.4263,2493.253 L5581.4263,2599.253 L5723.4263,2667.253 L6269.4263,2676.253 L6265.4263,2836.253 L5677.4263,2853.253 L5580.4263,2952.253 L5401.4263,3001.253 L5292.118,2786.4492 L5186.637,2530.56 L5122.4263,2335.253 z" fill="#FFC879" fill-rule="nonzero" opacity="0.9" stroke="black" stroke-width="12.0792"/>
</g>
<g>
<path d="M5830.5244,5539.555 L5648.526,5334.361 L5556.526,5228.361 L5414.526,5160.361 L4868.526,5151.361 L4872.526,4991.361 L5460.526,4974.361 L5557.526,4875.361 L5736.526,4826.361 L5845.834,5041.1646 L5951.3154,5297.0537 L6015.526,5492.361 z" fill="#FFC879" fill-rule="nonzero" opacity="0.9" stroke="black" stroke-width="12.0792"/>
</g>
<g>
<path d="M6353.035,1385.9751 L6171.0366,1180.7808 L6079.0366,1074.7808 L5937.0366,1006.78076 L5391.0366,997.78076 L5395.0366,837.78076 L5983.0366,820.78076 L6080.0366,721.78076 L6259.0366,672.78076 L6368.3447,887.58453 L6473.826,1143.4738 L6538.0366,1338.7808 z" fill="#FFC879" fill-rule="nonzero" opacity="0.9" stroke="black" stroke-width="12.0792"/>
</g>
<g>
<path d="M5188.551,3453.857 L5196.551,3305.857 L5215.513,3154.1587 L5256.994,2991.4248 L5367.551,3004.857 L5476.551,3007.857 L5589.551,2990.857 L5952.2866,2906.9587 L5993.551,3103.857 L6075.551,3257.857 L5943.551,3277.857 L5843.551,3298.857 L5711.551,3332.857 L5460.551,3401.857 L5306.004,3441.9795 z" fill="#FFC879" fill-rule="nonzero" opacity="0.9" stroke="black" stroke-width="12.0792"/>
</g>
<g>
<path d="M5659.8936,1918.3619 L5667.8936,1770.3619 L5686.856,1618.6638 L5728.3374,1455.9299 L5838.8936,1469.3619 L5947.8936,1472.3619 L6060.8936,1455.3619 L6423.6294,1371.464 L6464.8936,1568.3619 L6546.8936,1722.3619 L6414.8936,1742.3619 L6314.8936,1763.3619 L6182.8936,1797.3619 L5931.8936,1866.3619 L5777.347,1906.4847 z" fill="#FFC879" fill-rule="nonzero" opacity="0.9" stroke="black" stroke-width="12.0792"/>
</g>
<g>
<path d="M6547.191,1729.5925 L6539.191,1877.5925 L6520.2285,2029.2906 L6478.747,2192.0247 L6368.191,2178.5925 L6259.191,2175.5925 L6146.191,2192.5925 L5783.455,2276.4905 L5742.191,2079.5925 L5660.191,1925.5925 L5792.191,1905.5925 L5892.191,1884.5925 L6024.191,1850.5925 L6275.191,1781.5925 L6429.7373,1741.4698 z" fill="#FFC879" fill-rule="nonzero" opacity="0.9" stroke="black" stroke-width="12.0792"/>
</g>
<g>
<path d="M6805.1694,2125.242 L6797.1694,2273.242 L6778.207,2424.9402 L6736.7256,2587.674 L6626.1694,2574.242 L6517.1694,2571.242 L6404.1694,2588.242 L6041.4336,2672.1401 L6000.1694,2475.242 L5918.1694,2321.242 L6050.1694,2301.242 L6150.1694,2280.242 L6282.1694,2246.242 L6533.1694,2177.242 L6687.716,2137.1194 z" fill="#FFC879" fill-rule="nonzero" opacity="0.9" stroke="black" stroke-width="12.0792"/>
</g>
<g>
<path d="M5889.3657,3740.0266 L5897.3657,3592.0266 L5916.328,3440.3286 L5957.809,3277.5945 L6068.3657,3291.0266 L6177.3657,3294.0266 L6290.3657,3277.0266 L6653.1016,3193.1287 L6694.3657,3390.0266 L6776.3657,3544.0266 L6644.3657,3564.0266 L6544.3657,3585.0266 L6412.3657,3619.0266 L6161.3657,3688.0266 L6006.819,3728.1494 z" fill="#FFC879" fill-rule="nonzero" opacity="0.9" stroke="black" stroke-width="12.0792"/>
</g>
<g>
<path d="M6776.2144,3554.3699 L6768.2144,3702.3699 L6749.252,3854.068 L6707.771,4016.802 L6597.2144,4003.3699 L6488.2144,4000.3699 L6375.2144,4017.3699 L6012.4785,4101.268 L5971.2144,3904.3699 L5889.2144,3750.3699 L6021.2144,3730.3699 L6121.2144,3709.3699 L6253.2144,3675.3699 L6504.2144,3606.3699 L6658.761,3566.2473 z" fill="#FFC879" fill-rule="nonzero" opacity="0.9" stroke="black" stroke-width="12.0792"/>
</g>
<g>
<path d="M4317.6235,2134.1604 L4419.8027,2256.7754 L4422.628,2420.645 L4379.111,2539.593 L4296.0786,2679.33 L4214.6353,2608.7458 L4123.4644,2498.7122 L4063.6072,2359.0454 L4073.051,2204.7961 L4174.636,2040.325 z" fill="#FFC879" fill-rule="nonzero" opacity="0.9" stroke="black" stroke-width="12.0792"/>
</g>
<g>
<path d="M4171.688,3354.3706 L4273.867,3476.9856 L4276.693,3640.8552 L4233.1753,3759.803 L4150.143,3899.5403 L4068.6997,3828.956 L3977.5288,3718.922 L3917.6716,3579.2556 L3927.1155,3425.0063 L4028.7007,3260.5352 z" fill="#FFC879" fill-rule="nonzero" opacity="0.9" stroke="black" stroke-width="12.0792"/>
</g>
<g>
<path d="M6018.2275,4641.5024 L5916.0483,4518.8877 L5913.2227,4355.0176 L5956.74,4236.07 L6039.7725,4096.333 L6121.216,4166.917 L6212.3867,4276.9507 L6272.2437,4416.6177 L6262.8,4570.8667 L6161.215,4735.338 z" fill="#FFC879" fill-rule="nonzero" opacity="0.9" stroke="black" stroke-width="12.0792"/>
</g>
<g>
<path d="M6127.9893,4883.404 L6230.1685,5006.019 L6232.9937,5169.8887 L6189.4766,5288.8364 L6106.4443,5428.5737 L6025.001,5357.9893 L5933.83,5247.9556 L5873.9727,5108.289 L5883.4165,4954.0396 L5985.002,4789.5684 z" fill="#FFC879" fill-rule="nonzero" opacity="0.9" stroke="black" stroke-width="12.0792"/>
</g>
<g>
<path d="M6699.0503,94.212425 L6801.2295,216.82753 L6804.0547,380.69717 L6760.5376,499.64496 L6677.5054,639.38214 L6596.062,568.7979 L6504.891,458.76416 L6445.0337,319.09747 L6454.4775,164.8483 L6556.063,0.3769669 z" fill="#FFC879" fill-rule="nonzero" opacity="0.9" stroke="black" stroke-width="12.0792"/>
</g>
<g>
<path d="M6662.6133,758.7028 L6764.7925,881.31793 L6767.6177,1045.1876 L6724.1006,1164.1354 L6641.068,1303.8726 L6559.625,1233.2883 L6468.454,1123.2545 L6408.5967,983.5879 L6418.0405,829.33875 L6519.626,664.8674 z" fill="#FFC879" fill-rule="nonzero" opacity="0.9" stroke="black" stroke-width="12.0792"/>
</g>
</g>
<g/>
<g/>
<g/>
</svg>